<svg xmlns="http://www.w3.org/2000/svg" viewBox="0 0 100 30"><rect width="100" height="30" fill="#ff5400"/><g style="isolation:isolate"><path d="M20.37,18.78V10.25h2.4a3.84,3.84,0,0,1,2,.49,3.37,3.37,0,0,1,1.32,1.4,4.53,4.53,0,0,1,.48,2.09v.54a4.6,4.6,0,0,1-.47,2.12,3.25,3.25,0,0,1-1.33,1.39,4.1,4.1,0,0,1-2,.5Zm1.12-7.61v6.69h1.18a2.58,2.58,0,0,0,2-.81,3.35,3.35,0,0,0,.72-2.3v-.5A3.37,3.37,0,0,0,24.74,12a2.42,2.42,0,0,0-1.94-.82Z" fill="#000"/><path d="M30.7,18.9a2.76,2.76,0,0,1-2.1-.85,3.13,3.13,0,0,1-.81-2.26v-.2a3.85,3.85,0,0,1,.36-1.69,2.86,2.86,0,0,1,1-1.16,2.52,2.52,0,0,1,1.4-.42,2.37,2.37,0,0,1,1.92.82,3.5,3.5,0,0,1,.69,2.33v.45h-4.3a2.29,2.29,0,0,0,.55,1.52,1.74,1.74,0,0,0,1.33.57,1.87,1.87,0,0,0,1-.23,2.39,2.39,0,0,0,.69-.62l.67.51A2.66,2.66,0,0,1,30.7,18.9Zm-.14-5.69a1.44,1.44,0,0,0-1.1.48A2.32,2.32,0,0,0,28.91,15h3.17V15a2,2,0,0,0-.44-1.28A1.39,1.39,0,0,0,30.56,13.21Z" fill="#000"/><path d="M39.78,15.68A3.79,3.79,0,0,1,39.12,18a2.14,2.14,0,0,1-1.8.89,2.33,2.33,0,0,1-1.81-.73v3H34.42V12.44h1l.06.7a2.24,2.24,0,0,1,1.84-.82,2.14,2.14,0,0,1,1.8.87,3.77,3.77,0,0,1,.67,2.39Zm-1.09-.12a2.8,2.8,0,0,0-.45-1.69A1.48,1.48,0,0,0,37,13.24a1.59,1.59,0,0,0-1.47.88v3A1.6,1.6,0,0,0,37,18a1.45,1.45,0,0,0,1.23-.61A3.07,3.07,0,0,0,38.69,15.56Z" fill="#000"/><path d="M44.22,13.41a4.24,4.24,0,0,0-.53,0,1.44,1.44,0,0,0-1.45.91v4.5H41.16V12.44h1.05l0,.73a1.69,1.69,0,0,1,1.51-.85,1,1,0,0,1,.48.09Z" fill="#000"/><path d="M47.74,18.9a2.76,2.76,0,0,1-2.1-.85,3.13,3.13,0,0,1-.81-2.26v-.2a3.85,3.85,0,0,1,.36-1.69,2.86,2.86,0,0,1,1-1.16,2.52,2.52,0,0,1,1.4-.42,2.38,2.38,0,0,1,1.92.82,3.5,3.5,0,0,1,.69,2.33v.45h-4.3a2.29,2.29,0,0,0,.55,1.52,1.72,1.72,0,0,0,1.33.57,1.87,1.87,0,0,0,1-.23,2.53,2.53,0,0,0,.69-.62l.67.51A2.67,2.67,0,0,1,47.74,18.9Zm-.14-5.69a1.44,1.44,0,0,0-1.1.48A2.32,2.32,0,0,0,46,15h3.17V15a2.08,2.08,0,0,0-.44-1.28A1.39,1.39,0,0,0,47.6,13.21Z" fill="#000"/><path d="M54,18a1.54,1.54,0,0,0,1-.35,1.23,1.23,0,0,0,.48-.88h1a2,2,0,0,1-.37,1,2.53,2.53,0,0,1-.92.79A2.78,2.78,0,0,1,54,18.9,2.59,2.59,0,0,1,52,18a3.42,3.42,0,0,1-.77-2.36v-.18a3.77,3.77,0,0,1,.34-1.65,2.61,2.61,0,0,1,1-1.12,2.8,2.8,0,0,1,1.5-.4,2.56,2.56,0,0,1,1.77.64,2.29,2.29,0,0,1,.75,1.66h-1a1.48,1.48,0,0,0-.47-1,1.46,1.46,0,0,0-1-.4,1.51,1.51,0,0,0-1.28.6,2.82,2.82,0,0,0-.46,1.72v.2a2.74,2.74,0,0,0,.46,1.69A1.5,1.5,0,0,0,54,18Z" fill="#000"/><path d="M61.66,18.78a2,2,0,0,1-.16-.67,2.38,2.38,0,0,1-1.8.79,2.27,2.27,0,0,1-1.54-.53,1.73,1.73,0,0,1-.6-1.35,1.77,1.77,0,0,1,.75-1.53,3.54,3.54,0,0,1,2.12-.55h1.06v-.5a1.26,1.26,0,0,0-.34-.91,1.39,1.39,0,0,0-1-.33,1.56,1.56,0,0,0-1,.29.87.87,0,0,0-.39.71H57.69a1.48,1.48,0,0,1,.34-.92,2.31,2.31,0,0,1,.91-.7,3.13,3.13,0,0,1,1.27-.26,2.55,2.55,0,0,1,1.72.55,2,2,0,0,1,.64,1.51V17.3a3.78,3.78,0,0,0,.22,1.39v.09ZM59.86,18a1.9,1.9,0,0,0,1-.27,1.6,1.6,0,0,0,.66-.68v-1.3h-.85c-1.33,0-2,.38-2,1.16a1,1,0,0,0,.34.8A1.29,1.29,0,0,0,59.86,18Z" fill="#000"/><path d="M65.74,10.91v1.53h1.18v.84H65.74v3.94a.86.86,0,0,0,.16.57.64.64,0,0,0,.54.19,2.33,2.33,0,0,0,.51-.07v.87a3,3,0,0,1-.83.12A1.34,1.34,0,0,1,65,18.46a1.87,1.87,0,0,1-.37-1.25V13.28H63.5v-.84h1.16V10.91Z" fill="#000"/><path d="M70.82,18.9a2.76,2.76,0,0,1-2.1-.85,3.12,3.12,0,0,1-.8-2.26v-.2a3.85,3.85,0,0,1,.36-1.69,2.83,2.83,0,0,1,1-1.16,2.53,2.53,0,0,1,1.41-.42,2.39,2.39,0,0,1,1.92.82,3.5,3.5,0,0,1,.68,2.33v.45H69a2.24,2.24,0,0,0,.55,1.52,1.72,1.72,0,0,0,1.33.57,1.83,1.83,0,0,0,1-.23,2.43,2.43,0,0,0,.7-.62l.66.51A2.66,2.66,0,0,1,70.82,18.9Zm-.13-5.69a1.46,1.46,0,0,0-1.11.48A2.39,2.39,0,0,0,69,15h3.18V15a2,2,0,0,0-.45-1.28A1.35,1.35,0,0,0,70.69,13.21Z" fill="#000"/><path d="M74.28,15.56a3.67,3.67,0,0,1,.7-2.35,2.34,2.34,0,0,1,3.57-.12V9.78h1.08v9h-1l-.06-.68a2.2,2.2,0,0,1-1.81.8A2.16,2.16,0,0,1,75,18a3.8,3.8,0,0,1-.7-2.36Zm1.09.12a2.88,2.88,0,0,0,.44,1.69A1.44,1.44,0,0,0,77,18a1.59,1.59,0,0,0,1.51-.93V14.14a1.58,1.58,0,0,0-1.49-.9,1.46,1.46,0,0,0-1.25.62A3.15,3.15,0,0,0,75.37,15.68Z" fill="#000"/></g></svg>