<svg xmlns="http://www.w3.org/2000/svg" viewBox="0 0 100 30"><rect width="100" height="30" fill="#72d35b"/><g style="isolation:isolate"><path d="M45.23,19.21H44.1l-4.3-6.58v6.58H38.67V10.68H39.8l4.31,6.6v-6.6h1.12Z" fill="#000"/><path d="M49.69,19.32a2.79,2.79,0,0,1-2.1-.84,3.15,3.15,0,0,1-.81-2.27V16a3.77,3.77,0,0,1,.36-1.68,2.79,2.79,0,0,1,1-1.16,2.52,2.52,0,0,1,1.4-.42,2.36,2.36,0,0,1,1.92.81,3.53,3.53,0,0,1,.69,2.34v.45h-4.3a2.26,2.26,0,0,0,.55,1.51,1.71,1.71,0,0,0,1.33.58,2,2,0,0,0,1-.23,2.6,2.6,0,0,0,.7-.63l.66.52A2.65,2.65,0,0,1,49.69,19.32Zm-.14-5.68a1.44,1.44,0,0,0-1.1.48,2.29,2.29,0,0,0-.55,1.34h3.18v-.08a2.12,2.12,0,0,0-.45-1.29A1.37,1.37,0,0,0,49.55,13.64Z" fill="#000"/><path d="M59,17.71l1.22-4.84h1.08l-1.85,6.34H58.6L57.06,14.4l-1.5,4.81h-.88l-1.84-6.34h1.08l1.25,4.74,1.48-4.74h.87Z" fill="#000"/></g></svg>