<svg xmlns="http://www.w3.org/2000/svg" viewBox="0 0 100 30"><rect width="100" height="30" fill="#72d35b"/><g style="isolation:isolate"><path d="M41.38,16.17H37.8v3.77H36.68V11.41H42v.92H37.8v2.92h3.58Z" fill="#000"/><path d="M43.14,11.92a.66.66,0,0,1,.17-.45.58.58,0,0,1,.47-.18.62.62,0,0,1,.48.18.66.66,0,0,1,.17.45.6.6,0,0,1-.65.62.58.58,0,0,1-.47-.18A.62.62,0,0,1,43.14,11.92Zm1.18,8H43.23V13.6h1.09Z" fill="#000"/><path d="M48.18,15.92l1.4-2.32h1.27l-2.07,3.14,2.13,3.2H49.66L48.2,17.57l-1.47,2.37H45.47l2.14-3.2L45.53,13.6h1.26Z" fill="#000"/><path d="M54.51,20.06a2.76,2.76,0,0,1-2.1-.85,3.17,3.17,0,0,1-.8-2.26v-.2A3.85,3.85,0,0,1,52,15.06a2.83,2.83,0,0,1,1-1.16,2.56,2.56,0,0,1,1.41-.42,2.39,2.39,0,0,1,1.92.82A3.5,3.5,0,0,1,57,16.63v.45H52.69a2.29,2.29,0,0,0,.55,1.52,1.72,1.72,0,0,0,1.33.57,1.83,1.83,0,0,0,1-.23,2.43,2.43,0,0,0,.7-.62l.66.51A2.66,2.66,0,0,1,54.51,20.06Zm-.13-5.68a1.42,1.42,0,0,0-1.1.47,2.39,2.39,0,0,0-.56,1.34H55.9v-.08a2.08,2.08,0,0,0-.44-1.28A1.38,1.38,0,0,0,54.38,14.38Z" fill="#000"/><path d="M58,16.72a3.73,3.73,0,0,1,.7-2.35,2.34,2.34,0,0,1,3.57-.12V10.94h1.08v9h-1l0-.68a2.23,2.23,0,0,1-1.81.8,2.16,2.16,0,0,1-1.8-.9A3.8,3.8,0,0,1,58,16.8Zm1.09.12a2.88,2.88,0,0,0,.44,1.69,1.44,1.44,0,0,0,1.23.61,1.59,1.59,0,0,0,1.51-.93V15.3a1.58,1.58,0,0,0-1.49-.9A1.47,1.47,0,0,0,59.5,15,3.15,3.15,0,0,0,59.06,16.84Z" fill="#000"/></g></svg>