<?xml version="1.0" encoding="UTF-8"?>
<svg id="a" data-name="Layer 1" xmlns="http://www.w3.org/2000/svg" xmlns:xlink="http://www.w3.org/1999/xlink" viewBox="0 0 893.04 389.04">
  <defs>
    <clipPath id="b">
      <rect width="892.8" height="388.8" fill="none"/>
    </clipPath>
    <clipPath id="c">
      <rect x="18.75" y="7.5" width="855" height="373.5" fill="none"/>
    </clipPath>
  </defs>
  <g clip-path="url(#b)">
    <rect width="892.5" height="388.5"/>
  </g>
  <g clip-path="url(#c)">
    <path d="M88.28,290.94h248.79c3.55,0,8.31,2.23,10.58,4.96l20.89,25.07c5.18,6.21,2.8,11.29-5.29,11.29H62.1c-8.08,0-10.47-5.08-5.29-11.29l20.89-25.07c2.27-2.73,7.03-4.96,10.58-4.96" fill="#141414"/>
    <path d="M88.28,290.94h248.79c3.55,0,8.31,2.23,10.58,4.96l20.89,25.07c5.18,6.21,2.8,11.29-5.29,11.29H62.1c-8.08,0-10.47-5.08-5.29-11.29l20.89-25.07c2.27-2.73,7.03-4.96,10.58-4.96" fill="none" stroke="#a6a6a6" stroke-miterlimit="10" stroke-width="2.07"/>
    <path d="M155.39,354.64v-.99h5.65v.99h-5.65ZM154.81,354.64v-9.92h1.13v9.92h-1.13Z" fill="#a6a6a6"/>
    <path d="M165.09,353.84c.48,0,.89-.12,1.24-.35.35-.23.62-.56.81-.97.19-.41.29-.89.29-1.43,0-.81-.21-1.46-.64-1.94-.43-.49-.99-.73-1.7-.73s-1.26.24-1.69.73c-.43.49-.65,1.13-.65,1.94,0,.54.1,1.02.29,1.43.19.41.47.74.82.97.35.23.76.35,1.23.35ZM165.09,354.78c-.69,0-1.29-.16-1.82-.48-.52-.32-.93-.76-1.22-1.32-.29-.56-.43-1.18-.43-1.88s.15-1.33.44-1.87c.29-.54.7-.97,1.22-1.28s1.12-.47,1.81-.47,1.31.16,1.82.47.92.74,1.21,1.28c.29.54.43,1.17.43,1.87s-.14,1.32-.43,1.88c-.29.56-.69.99-1.21,1.32s-1.13.48-1.82.48Z" fill="#a6a6a6"/>
    <path d="M172.59,354.78c-.86,0-1.55-.2-2.07-.6s-.81-.97-.88-1.7h1.06c.06.45.26.79.59,1.03s.77.36,1.32.36c.49,0,.87-.09,1.14-.28.28-.18.41-.45.41-.79,0-.24-.08-.45-.23-.63-.16-.18-.47-.33-.94-.45l-1.13-.29c-.64-.17-1.12-.42-1.45-.76-.32-.34-.48-.76-.48-1.23,0-.61.22-1.09.67-1.44.45-.35,1.06-.53,1.83-.53s1.38.18,1.86.55.75.88.81,1.53h-1.06c-.06-.38-.24-.67-.52-.87s-.66-.3-1.13-.3-.8.08-1.05.25c-.25.17-.37.41-.37.72,0,.24.09.45.27.62.18.17.48.32.9.44l1.1.3c.65.17,1.14.44,1.47.8.33.36.5.79.5,1.29,0,.62-.23,1.09-.7,1.44-.47.34-1.12.52-1.94.52Z" fill="#a6a6a6"/>
    <path d="M180.78,350.63h5.18v.99h-5.18v-.99ZM186.75,354.64l-3.73-9.92h1.06l3.83,9.92h-1.16ZM178.87,354.64l3.83-9.92h.99l-3.73,9.92h-1.09Z" fill="#a6a6a6"/>
    <path d="M194.53,354.64v-4.6c0-.53-.13-.93-.4-1.2s-.66-.4-1.18-.4c-.46,0-.87.1-1.22.3-.35.2-.63.48-.83.84s-.3.78-.3,1.25l-.18-1.67c.24-.52.6-.94,1.09-1.24.49-.3,1.05-.45,1.67-.45.73,0,1.32.21,1.77.63s.67.97.67,1.65v4.89h-1.1ZM189.51,354.64v-7.02h1.03v1.65h.07v5.37h-1.1Z" fill="#a6a6a6"/>
    <path d="M200.61,353.69c.69,0,1.23-.24,1.64-.72.4-.48.61-1.12.61-1.94s-.2-1.43-.61-1.89-.95-.7-1.64-.7-1.25.23-1.65.7c-.4.47-.6,1.11-.6,1.93s.2,1.43.61,1.91c.4.47.95.71,1.64.71ZM200.55,357.6c-.84,0-1.53-.2-2.09-.59s-.89-.91-1.01-1.55h1.05c.1.37.33.66.68.87.35.22.83.32,1.44.32.72,0,1.26-.2,1.63-.59.37-.39.55-.96.55-1.71v-1.5l.14.03c-.16.53-.47.96-.94,1.27-.47.32-1.02.48-1.67.48s-1.16-.15-1.63-.45c-.47-.3-.83-.71-1.09-1.25-.26-.53-.39-1.15-.39-1.86s.13-1.35.4-1.89c.27-.54.64-.96,1.12-1.26.48-.3,1.04-.45,1.69-.45s1.21.16,1.66.48.74.78.89,1.38h-.12s0-1.74,0-1.74h1.03v6.75c0,1-.3,1.79-.9,2.37-.6.58-1.41.87-2.45.87Z" fill="#a6a6a6"/>
    <path d="M208.98,354.78c-.67,0-1.26-.16-1.78-.48-.51-.32-.92-.75-1.21-1.3-.29-.55-.44-1.18-.44-1.9s.14-1.35.43-1.89.7-.97,1.22-1.27c.52-.3,1.12-.45,1.8-.45s1.22.14,1.7.43c.48.28.85.68,1.12,1.2.26.51.39,1.12.39,1.82,0,.09,0,.18,0,.26,0,.08-.02.17-.03.28h-5.8v-.92h5.12l-.36.51c0-.84-.19-1.49-.56-1.95-.37-.45-.9-.68-1.58-.68s-1.26.24-1.69.72c-.43.48-.64,1.13-.64,1.95s.21,1.5.64,2c.43.5,1,.75,1.71.75.45,0,.84-.1,1.18-.3.34-.2.59-.48.74-.85h1.05c-.23.64-.61,1.15-1.15,1.52-.54.37-1.16.56-1.88.56Z" fill="#a6a6a6"/>
    <rect x="213.87" y="344.72" width="1.1" height="9.92" fill="#a6a6a6"/>
    <path d="M220.06,354.78c-.67,0-1.26-.16-1.78-.48-.51-.32-.92-.75-1.21-1.3-.29-.55-.44-1.18-.44-1.9s.14-1.35.43-1.89.7-.97,1.22-1.27c.52-.3,1.12-.45,1.8-.45s1.22.14,1.7.43c.48.28.85.68,1.12,1.2.26.51.39,1.12.39,1.82,0,.09,0,.18,0,.26,0,.08-.02.17-.03.28h-5.8v-.92h5.12l-.36.51c0-.84-.19-1.49-.56-1.95-.37-.45-.9-.68-1.58-.68s-1.26.24-1.69.72c-.43.48-.64,1.13-.64,1.95s.21,1.5.64,2c.43.5,1,.75,1.71.75.45,0,.84-.1,1.18-.3.34-.2.59-.48.74-.85h1.05c-.23.64-.61,1.15-1.15,1.52-.54.37-1.16.56-1.88.56Z" fill="#a6a6a6"/>
    <path d="M227.33,354.78c-.86,0-1.55-.2-2.07-.6s-.81-.97-.88-1.7h1.06c.06.45.26.79.59,1.03s.77.36,1.32.36c.49,0,.87-.09,1.14-.28.28-.18.41-.45.41-.79,0-.24-.08-.45-.23-.63s-.47-.33-.94-.45l-1.13-.29c-.64-.17-1.12-.42-1.45-.76-.32-.34-.48-.76-.48-1.23,0-.61.22-1.09.67-1.44.45-.35,1.06-.53,1.83-.53s1.38.18,1.86.55.75.88.81,1.53h-1.06c-.06-.38-.24-.67-.52-.87s-.66-.3-1.13-.3-.8.08-1.05.25c-.25.17-.37.41-.37.72,0,.24.09.45.27.62.18.17.48.32.9.44l1.1.3c.65.17,1.14.44,1.47.8.33.36.5.79.5,1.29,0,.62-.23,1.09-.7,1.44-.47.34-1.12.52-1.94.52Z" fill="#a6a6a6"/>
    <path d="M236.96,356.16c-.94-.85-1.63-1.79-2.07-2.81s-.67-2.06-.67-3.11.22-2.07.67-3.09,1.14-1.97,2.07-2.83h1.06c-.93.86-1.62,1.79-2.09,2.78-.46.99-.7,2.04-.7,3.15s.24,2.17.72,3.16,1.17,1.91,2.07,2.76h-1.06Z" fill="#a6a6a6"/>
    <path d="M243.13,354.78c-1.19,0-2.12-.36-2.79-1.09-.67-.73-1-1.75-1-3.06v-5.89h1.13v5.95c0,.99.23,1.75.69,2.29.46.53,1.12.8,1.97.8s1.54-.26,2-.79c.46-.53.69-1.29.69-2.29v-5.95h1.13v5.91c0,1.3-.34,2.32-1.01,3.05-.67.73-1.61,1.09-2.81,1.09Z" fill="#a6a6a6"/>
    <path d="M252.55,354.76c-1.16,0-2.08-.28-2.76-.85-.68-.57-1.09-1.38-1.21-2.44h1.1c.1.76.39,1.34.87,1.72.48.39,1.14.58,1.98.58.72,0,1.26-.14,1.62-.41s.54-.67.54-1.19c0-.45-.12-.81-.37-1.07s-.63-.49-1.16-.66l-1.67-.58c-.84-.29-1.47-.65-1.87-1.07-.4-.42-.61-.95-.61-1.59,0-.53.13-.99.4-1.38.27-.39.64-.7,1.13-.92.49-.22,1.05-.33,1.69-.33.99,0,1.79.26,2.38.78s.94,1.26,1.03,2.21h-1.1c-.12-.69-.36-1.19-.74-1.52-.37-.32-.91-.48-1.6-.48-.66,0-1.18.13-1.54.4-.37.27-.55.64-.55,1.13,0,.41.13.74.39.99s.66.46,1.2.65l1.78.62c.77.27,1.35.63,1.74,1.08.39.45.58,1.03.58,1.73,0,.83-.28,1.47-.85,1.92-.56.45-1.37.68-2.4.68Z" fill="#a6a6a6"/>
    <path d="M258.55,350.63h5.18v.99h-5.18v-.99ZM264.53,354.64l-3.73-9.92h1.06l3.83,9.92h-1.16ZM256.65,354.64l3.83-9.92h.99l-3.73,9.92h-1.09Z" fill="#a6a6a6"/>
    <path d="M267.17,344.26c.94.85,1.63,1.79,2.07,2.81.45,1.02.67,2.06.67,3.11s-.22,2.07-.67,3.09c-.45,1.02-1.14,1.97-2.07,2.83h-1.06c.93-.86,1.62-1.79,2.09-2.78.46-.99.7-2.04.7-3.15s-.24-2.17-.72-3.16c-.48-.99-1.17-1.91-2.07-2.76h1.06Z" fill="#a6a6a6"/>
    <path d="M143.81,268.22c-4.94,0-8.95,4.01-8.95,8.95s4.01,8.95,8.95,8.95,8.95-4.01,8.95-8.95-4.01-8.95-8.95-8.95M163.78,277.17c0,12.4-15.84,34.43-19.97,34.43s-19.97-22.04-19.97-34.43c0-11.03,8.94-19.97,19.97-19.97s19.97,8.94,19.97,19.97" fill="#1a1a1a"/>
    <path d="M143.81,268.22c-4.94,0-8.95,4.01-8.95,8.95s4.01,8.95,8.95,8.95,8.95-4.01,8.95-8.95-4.01-8.95-8.95-8.95M163.78,277.17c0,12.4-15.84,34.43-19.97,34.43s-19.97-22.04-19.97-34.43c0-11.03,8.94-19.97,19.97-19.97s19.97,8.94,19.97,19.97" fill="none" stroke="#a6a6a6" stroke-miterlimit="10" stroke-width="2.07"/>
    <path d="M556.56,290.94h248.79c3.55,0,8.31,2.23,10.58,4.96l20.89,25.07c5.18,6.21,2.8,11.29-5.29,11.29h-301.15c-8.08,0-10.47-5.08-5.29-11.29l20.89-25.07c2.27-2.73,7.03-4.96,10.58-4.96" fill="#141414"/>
    <path d="M556.56,290.94h248.79c3.55,0,8.31,2.23,10.58,4.96l20.89,25.07c5.18,6.21,2.8,11.29-5.29,11.29h-301.15c-8.08,0-10.47-5.08-5.29-11.29l20.89-25.07c2.27-2.73,7.03-4.96,10.58-4.96" fill="none" stroke="#a6a6a6" stroke-miterlimit="10" stroke-width="2.07"/>
    <path d="M641.92,354.64v-.99h5.65v.99h-5.65ZM641.34,354.64v-9.92h1.13v9.92h-1.13Z" fill="#a6a6a6"/>
    <path d="M651.62,353.84c.48,0,.89-.12,1.24-.35.35-.23.62-.56.81-.97.19-.41.29-.89.29-1.43,0-.81-.21-1.46-.64-1.94-.43-.49-.99-.73-1.7-.73s-1.26.24-1.69.73c-.43.49-.65,1.13-.65,1.94,0,.54.1,1.02.29,1.43.19.41.47.74.82.97.35.23.76.35,1.23.35ZM651.62,354.78c-.69,0-1.29-.16-1.82-.48s-.93-.76-1.22-1.32c-.29-.56-.43-1.18-.43-1.88s.15-1.33.44-1.87c.29-.54.7-.97,1.22-1.28s1.12-.47,1.81-.47,1.31.16,1.82.47c.52.31.92.74,1.21,1.28.29.54.43,1.17.43,1.87s-.14,1.32-.43,1.88c-.29.56-.69.99-1.21,1.32-.52.32-1.13.48-1.82.48Z" fill="#a6a6a6"/>
    <path d="M661.77,354.64v-4.6c0-.53-.13-.93-.4-1.2-.27-.27-.66-.4-1.18-.4-.46,0-.87.1-1.22.3s-.63.48-.83.84c-.2.36-.3.78-.3,1.25l-.18-1.67c.24-.52.6-.94,1.09-1.24.49-.3,1.05-.45,1.67-.45.73,0,1.32.21,1.77.63.45.42.67.97.67,1.65v4.89h-1.1ZM656.74,354.64v-7.02h1.03v1.65h.07v5.37h-1.1Z" fill="#a6a6a6"/>
    <path d="M667.83,353.81c.71,0,1.26-.24,1.66-.72.4-.48.6-1.14.6-1.98s-.2-1.46-.61-1.94c-.4-.48-.95-.72-1.65-.72s-1.24.24-1.64.72c-.39.48-.59,1.14-.59,1.98s.2,1.48.59,1.95.94.71,1.64.71ZM670.1,354.64v-1.64l.14.04c-.17.53-.49.95-.96,1.27s-1.02.47-1.66.47-1.19-.15-1.66-.45c-.47-.3-.84-.73-1.1-1.27-.26-.54-.39-1.18-.39-1.9s.13-1.38.4-1.93c.27-.55.64-.98,1.12-1.28s1.04-.45,1.68-.45,1.22.16,1.67.48c.45.32.76.78.92,1.36l-.22.03v-4.64h1.1v9.92h-1.03Z" fill="#a6a6a6"/>
    <path d="M676.26,353.84c.48,0,.89-.12,1.24-.35.35-.23.62-.56.81-.97.19-.41.29-.89.29-1.43,0-.81-.21-1.46-.64-1.94-.43-.49-.99-.73-1.7-.73s-1.26.24-1.69.73c-.43.49-.65,1.13-.65,1.94,0,.54.1,1.02.29,1.43.19.41.47.74.82.97.35.23.76.35,1.23.35ZM676.26,354.78c-.69,0-1.29-.16-1.82-.48s-.93-.76-1.22-1.32c-.29-.56-.43-1.18-.43-1.88s.15-1.33.44-1.87c.29-.54.7-.97,1.22-1.28s1.12-.47,1.81-.47,1.31.16,1.82.47c.52.31.92.74,1.21,1.28.29.54.43,1.17.43,1.87s-.14,1.32-.43,1.88c-.29.56-.69.99-1.21,1.32-.52.32-1.13.48-1.82.48Z" fill="#a6a6a6"/>
    <path d="M686.41,354.64v-4.6c0-.53-.13-.93-.4-1.2-.27-.27-.66-.4-1.18-.4-.46,0-.87.1-1.22.3s-.63.48-.83.84c-.2.36-.3.78-.3,1.25l-.18-1.67c.24-.52.6-.94,1.09-1.24.49-.3,1.05-.45,1.67-.45.73,0,1.32.21,1.77.63.45.42.67.97.67,1.65v4.89h-1.1ZM681.38,354.64v-7.02h1.03v1.65h.07v5.37h-1.1Z" fill="#a6a6a6"/>
    <path d="M695.13,356.16c-.94-.85-1.63-1.79-2.07-2.81s-.67-2.06-.67-3.11.22-2.07.67-3.09c.45-1.02,1.14-1.97,2.07-2.83h1.06c-.93.86-1.62,1.79-2.09,2.78s-.7,2.04-.7,3.15.24,2.17.72,3.16c.48.99,1.17,1.91,2.07,2.76h-1.06Z" fill="#a6a6a6"/>
    <path d="M701.3,354.78c-1.19,0-2.12-.36-2.79-1.09-.67-.73-1-1.75-1-3.06v-5.89h1.13v5.95c0,.99.23,1.75.69,2.29.46.53,1.12.8,1.97.8s1.54-.26,2-.79c.46-.53.69-1.29.69-2.29v-5.95h1.13v5.91c0,1.3-.34,2.32-1.01,3.05-.67.73-1.61,1.09-2.81,1.09Z" fill="#a6a6a6"/>
    <path d="M713.78,354.64l-5.4-5.15h1.5l5.54,5.15h-1.64ZM708.41,349.49l5.15-4.77h1.58l-5.26,4.77h-1.47ZM707.4,354.64v-9.92h1.13v9.92h-1.13Z" fill="#a6a6a6"/>
    <path d="M717.19,344.26c.94.85,1.63,1.79,2.07,2.81.45,1.02.67,2.06.67,3.11s-.22,2.07-.67,3.09c-.45,1.02-1.14,1.97-2.07,2.83h-1.06c.93-.86,1.62-1.79,2.09-2.78.46-.99.7-2.04.7-3.15s-.24-2.17-.72-3.16c-.48-.99-1.17-1.91-2.07-2.76h1.06Z" fill="#a6a6a6"/>
    <path d="M749.82,268.22c-4.94,0-8.95,4.01-8.95,8.95s4.01,8.95,8.95,8.95,8.95-4.01,8.95-8.95-4.01-8.95-8.95-8.95M769.79,277.17c0,12.4-15.84,34.43-19.97,34.43s-19.97-22.04-19.97-34.43c0-11.03,8.94-19.97,19.97-19.97s19.97,8.94,19.97,19.97" fill="#1a1a1a"/>
    <path d="M749.82,268.22c-4.94,0-8.95,4.01-8.95,8.95s4.01,8.95,8.95,8.95,8.95-4.01,8.95-8.95-4.01-8.95-8.95-8.95M769.79,277.17c0,12.4-15.84,34.43-19.97,34.43s-19.97-22.04-19.97-34.43c0-11.03,8.94-19.97,19.97-19.97s19.97,8.94,19.97,19.97" fill="none" stroke="#a6a6a6" stroke-miterlimit="10" stroke-width="2.07"/>
    <path d="M367.1,93.31c-.59.36-1.19.71-1.78,1.08-.12.07-.24.12-.38.14-.14.02-.27.02-.4-.02-.13-.03-.26-.09-.37-.17-.11-.08-.2-.18-.27-.3-.07-.12-.12-.24-.14-.38-.02-.14-.02-.27.02-.4.03-.13.09-.26.17-.37.08-.11.18-.2.3-.27.6-.37,1.2-.73,1.8-1.09.12-.07.24-.12.38-.14.14-.02.27-.01.4.02.13.03.25.09.36.17.11.08.2.18.27.3.07.12.12.24.14.38.02.14.01.27-.02.4-.03.13-.09.25-.17.36-.08.11-.18.2-.3.27ZM372.45,90.23c-.6.33-1.19.67-1.78,1-.12.07-.25.11-.38.13-.14.02-.27,0-.4-.03-.13-.04-.25-.1-.36-.18-.11-.08-.2-.19-.26-.3-.07-.12-.11-.25-.13-.38-.02-.14,0-.27.03-.4.04-.13.1-.25.18-.36.08-.11.19-.2.3-.26.6-.34,1.2-.68,1.8-1.01.12-.07.25-.11.38-.12.14-.02.27,0,.4.03.13.04.25.1.36.18.11.09.19.19.26.31.07.12.11.25.12.38s0,.27-.03.4c-.04.13-.1.25-.18.36-.09.11-.19.19-.31.26ZM377.88,87.33c-.61.31-1.23.63-1.84.96-.12.06-.25.1-.39.11-.14.01-.27,0-.4-.04s-.25-.1-.35-.19c-.11-.09-.19-.19-.25-.31-.06-.12-.1-.25-.11-.39-.01-.14,0-.27.04-.4.04-.13.1-.25.19-.35s.19-.19.31-.25c.62-.33,1.24-.65,1.86-.97.12-.06.25-.1.39-.11s.27,0,.4.05c.13.04.25.11.35.2.1.09.19.19.25.32.06.12.1.25.11.39.01.14,0,.27-.05.4-.04.13-.11.25-.2.35-.09.1-.19.19-.32.25ZM383.41,84.62c-.62.29-1.23.58-1.85.88-.12.06-.25.09-.39.1-.14,0-.27-.01-.4-.06-.13-.05-.25-.11-.35-.2-.1-.09-.18-.2-.24-.32-.06-.12-.09-.25-.1-.39,0-.14.01-.27.06-.4.05-.13.11-.25.2-.35.09-.1.2-.18.32-.24.62-.3,1.24-.6,1.87-.89.12-.06.25-.09.39-.1.14,0,.27.01.4.06.13.05.24.12.34.21.1.09.18.2.24.32.06.12.09.25.1.39,0,.14-.01.27-.06.4-.05.13-.12.24-.21.34-.09.1-.2.18-.32.24ZM389.04,82.11c-.63.27-1.27.54-1.9.82-.13.05-.26.08-.39.09-.14,0-.27-.02-.4-.07-.13-.05-.24-.12-.34-.22-.1-.09-.18-.21-.23-.33-.05-.13-.08-.26-.09-.39,0-.14.02-.27.07-.4.05-.13.12-.24.22-.34.09-.1.21-.18.33-.23.64-.28,1.28-.56,1.92-.83.13-.05.26-.08.39-.08.14,0,.27.02.4.08.13.05.24.13.34.22.1.1.17.21.23.33.05.13.08.26.08.39,0,.14-.02.27-.08.4-.05.13-.13.24-.22.34-.1.1-.21.17-.33.23ZM394.75,79.83c-.63.24-1.27.48-1.9.73-.13.05-.26.07-.4.07-.14,0-.27-.03-.39-.09-.13-.05-.24-.13-.33-.23-.1-.1-.17-.21-.22-.34-.05-.13-.07-.26-.07-.4,0-.14.03-.27.09-.39.05-.13.13-.24.23-.33.1-.1.21-.17.34-.22.64-.25,1.28-.5,1.93-.74.13-.05.26-.07.4-.07.14,0,.27.03.39.09.12.06.23.13.33.23.09.1.16.21.21.34.05.13.07.26.07.4,0,.14-.03.27-.09.39-.06.12-.13.23-.23.33-.1.09-.21.16-.34.21ZM400.56,77.76c-.65.22-1.3.44-1.95.66-.13.05-.26.06-.4.06-.14,0-.27-.04-.39-.1s-.23-.14-.32-.24c-.09-.1-.16-.22-.2-.35-.05-.13-.06-.26-.06-.4,0-.14.04-.27.1-.39.06-.12.14-.23.24-.32.1-.09.22-.16.35-.2.66-.23,1.32-.45,1.97-.67.13-.04.26-.06.4-.05.14,0,.27.05.39.11.12.06.23.14.32.25.09.1.16.22.2.35.04.13.06.26.05.4,0,.14-.05.27-.11.39-.06.12-.14.23-.25.32-.1.09-.22.16-.35.2ZM406.41,75.94c-.65.19-1.3.38-1.95.58-.13.04-.26.05-.4.04-.14-.01-.26-.05-.39-.12-.12-.06-.22-.15-.31-.26-.09-.11-.15-.22-.19-.36-.04-.13-.05-.26-.04-.4.01-.14.05-.26.12-.39.06-.12.15-.22.26-.31.11-.09.22-.15.36-.19.66-.2,1.32-.39,1.98-.59.13-.04.27-.05.4-.03.14.02.26.06.38.12.12.07.22.15.31.26.09.11.15.23.18.36.04.13.05.27.03.4-.02.14-.06.26-.12.38-.07.12-.15.22-.26.31s-.23.15-.36.18ZM412.38,74.36c-.66.16-1.33.33-1.99.5-.13.03-.27.04-.4.02s-.26-.06-.38-.13c-.12-.07-.22-.16-.3-.27s-.14-.23-.17-.36c-.03-.13-.04-.27-.02-.4.02-.14.06-.26.13-.38.07-.12.16-.22.27-.3.11-.08.23-.14.36-.17.67-.17,1.35-.34,2.02-.5.13-.03.27-.04.4-.02.14.02.26.07.38.14.12.07.22.16.3.27.08.11.14.23.17.37.03.13.04.27.02.4-.02.14-.07.26-.14.38-.07.12-.16.22-.27.3-.11.08-.23.14-.37.17ZM418.38,73.05c-.67.13-1.34.27-2.01.41-.13.03-.27.03-.4,0-.13-.03-.26-.07-.37-.15-.11-.07-.21-.17-.29-.28-.08-.11-.13-.24-.16-.37-.03-.13-.03-.27,0-.4.03-.13.07-.26.15-.37.07-.11.17-.21.28-.29s.24-.13.37-.16c.68-.14,1.36-.28,2.04-.42.13-.03.27-.03.4,0,.13.03.26.08.37.16.11.08.21.17.28.29.08.11.13.24.15.37s.03.27,0,.4c-.03.13-.08.26-.15.37-.08.11-.17.21-.29.28-.11.08-.24.13-.37.15ZM424.44,71.99c-.68.1-1.35.21-2.02.32-.14.02-.27.02-.4-.01-.13-.03-.26-.09-.37-.17-.11-.08-.2-.18-.28-.29s-.12-.24-.14-.38c-.02-.14-.02-.27.01-.4.03-.13.09-.26.17-.37.08-.11.18-.2.29-.28.12-.07.24-.12.38-.14.68-.11,1.37-.22,2.05-.33.14-.02.27-.01.4.02.13.03.25.09.36.17.11.08.2.18.27.3.07.12.12.24.14.38.02.14.01.27-.02.4-.03.13-.09.25-.17.36-.08.11-.18.2-.3.27-.12.07-.24.12-.38.14ZM430.54,71.21c-.68.07-1.36.15-2.04.23-.14.02-.27,0-.4-.03-.13-.04-.25-.1-.36-.18-.11-.08-.2-.19-.26-.31-.07-.12-.11-.25-.13-.38-.02-.14,0-.27.03-.4.04-.13.1-.25.18-.36.08-.11.19-.2.31-.26.12-.07.25-.11.38-.13.69-.08,1.38-.16,2.07-.23.14-.01.27,0,.4.04.13.04.25.1.36.19.11.09.19.19.26.31.07.12.11.25.12.38.01.14,0,.27-.04.4s-.1.25-.19.36c-.09.11-.19.19-.31.26-.12.07-.25.11-.38.12ZM436.67,70.7c-.68.04-1.36.09-2.05.14-.14.01-.27,0-.4-.05-.13-.04-.25-.11-.35-.2-.1-.09-.19-.2-.25-.32s-.1-.25-.11-.39c-.01-.14,0-.27.05-.4.04-.13.11-.25.2-.35.09-.1.2-.19.32-.25s.25-.1.39-.11c.69-.05,1.38-.1,2.08-.14.14,0,.27,0,.4.05.13.04.25.11.35.2.1.09.18.2.24.32.06.12.09.25.1.39,0,.14,0,.27-.05.4-.04.13-.11.25-.2.35-.09.1-.2.18-.32.24-.12.06-.25.09-.39.1ZM442.81,70.46c-.68.01-1.37.03-2.05.05-.14,0-.27-.02-.4-.07s-.24-.12-.34-.21c-.1-.09-.18-.2-.23-.33s-.09-.26-.09-.39c0-.14.02-.27.07-.4.05-.13.12-.24.21-.34.09-.1.2-.18.33-.23s.26-.09.39-.09c.69-.02,1.39-.04,2.08-.05.14,0,.27.02.4.07.13.05.24.12.34.22.1.1.17.21.23.33s.08.26.08.39c0,.14-.02.27-.07.4-.05.13-.12.24-.22.34-.1.1-.21.17-.33.23-.13.05-.26.08-.39.08ZM448.97,70.5c-.68-.02-1.37-.03-2.05-.04-.14,0-.27-.03-.39-.08-.13-.05-.24-.13-.33-.23-.1-.1-.17-.21-.22-.34-.05-.13-.08-.26-.07-.4,0-.14.03-.27.08-.39.05-.13.13-.24.23-.33.1-.1.21-.17.34-.22.13-.05.26-.08.4-.07.69,0,1.39.02,2.08.04.14,0,.27.03.39.09.13.06.23.13.33.23s.17.21.21.34c.05.13.07.26.07.4,0,.14-.03.27-.09.39s-.13.23-.23.33c-.1.09-.21.17-.34.21-.13.05-.26.07-.4.07ZM455.1,70.81c-.68-.05-1.36-.09-2.05-.13-.14,0-.27-.04-.39-.1-.12-.06-.23-.14-.32-.24s-.16-.22-.2-.35c-.04-.13-.06-.26-.06-.4,0-.14.04-.27.1-.39.06-.12.14-.23.24-.32.1-.09.22-.16.35-.2.13-.04.26-.06.4-.06.69.04,1.38.09,2.08.14.14,0,.27.05.39.11.12.06.23.14.32.25.09.1.16.22.2.35.04.13.06.26.05.4,0,.14-.05.27-.11.39-.06.12-.14.23-.25.32-.1.09-.22.16-.35.2-.13.04-.26.06-.4.05ZM461.23,71.39c-.68-.08-1.35-.15-2.03-.22-.14-.01-.26-.05-.39-.12-.12-.06-.22-.15-.31-.26-.09-.11-.15-.22-.19-.36-.04-.13-.05-.26-.04-.4.01-.14.05-.26.12-.39s.15-.22.26-.31c.11-.09.22-.15.36-.19.13-.04.26-.05.4-.04.69.07,1.37.14,2.06.22.14.02.26.06.38.12.12.07.22.15.31.26.09.11.15.23.18.36.04.13.05.27.03.4-.02.14-.06.26-.12.38-.07.12-.15.22-.26.31-.11.09-.23.15-.36.18-.13.04-.27.05-.4.03ZM467.32,72.23c-.68-.11-1.36-.21-2.03-.31-.14-.02-.26-.06-.38-.13-.12-.07-.22-.16-.3-.27-.08-.11-.14-.23-.17-.36-.03-.13-.04-.27-.02-.4.02-.14.06-.26.13-.38s.16-.22.27-.3.23-.14.36-.17.27-.04.4-.02c.69.1,1.37.2,2.06.31.14.02.26.07.38.14.12.07.22.16.3.27.08.11.14.23.17.37.03.13.04.27.02.4-.02.14-.07.26-.14.38s-.16.22-.27.3c-.11.08-.23.14-.37.17-.13.03-.27.04-.4.02ZM473.38,73.32c-.67-.13-1.34-.26-2-.39-.13-.03-.26-.08-.37-.15-.11-.07-.21-.17-.29-.28-.08-.11-.13-.24-.16-.37-.03-.13-.03-.27,0-.4.03-.13.08-.26.15-.37.07-.11.17-.21.28-.29.11-.08.24-.13.37-.16.13-.03.27-.03.4,0,.68.13,1.35.26,2.03.39.13.03.26.08.37.16.11.08.21.17.28.29.08.11.13.24.15.37s.03.27,0,.4c-.03.13-.08.26-.16.37-.08.11-.17.21-.29.28-.11.08-.24.13-.37.15s-.27.03-.4,0ZM479.4,74.66c-.67-.16-1.34-.32-2.01-.47-.13-.03-.26-.09-.37-.16-.11-.08-.2-.18-.28-.29-.07-.12-.12-.24-.14-.38s-.02-.27.01-.4c.03-.13.09-.26.16-.37.08-.11.18-.2.29-.28.12-.07.24-.12.38-.14.14-.02.27-.02.4.01.68.16,1.36.32,2.04.48.13.03.25.09.37.17.11.08.2.18.27.3.07.12.12.24.14.38.02.14.02.27-.02.4-.03.13-.09.25-.17.37-.08.11-.18.2-.3.27-.12.07-.24.12-.38.14-.14.02-.27.02-.4-.02ZM485.33,76.22c-.66-.19-1.31-.37-1.97-.55-.13-.04-.25-.1-.36-.18-.11-.08-.2-.18-.27-.3-.07-.12-.11-.25-.13-.38-.02-.14,0-.27.03-.4.04-.13.1-.25.18-.36.08-.11.18-.2.3-.27.12-.07.25-.11.38-.13.14-.02.27,0,.4.03.66.18,1.33.36,1.99.55.13.04.25.1.36.18.11.08.19.19.26.31s.11.25.12.38c.02.14,0,.27-.03.4-.04.13-.1.25-.18.36-.08.11-.19.19-.31.26-.12.07-.25.11-.38.12s-.27,0-.4-.03ZM491.26,78.02c-.66-.21-1.32-.42-1.98-.63-.13-.04-.25-.1-.35-.19-.11-.09-.19-.19-.25-.31-.06-.12-.1-.25-.11-.39-.01-.14,0-.27.04-.4.04-.13.1-.25.19-.35s.19-.19.31-.25c.12-.06.25-.1.39-.11.14-.01.27,0,.4.04.67.21,1.33.42,2,.63.13.04.25.11.35.2.1.09.19.19.25.32.06.12.1.25.11.39.01.14,0,.27-.05.4-.04.13-.11.25-.2.35-.09.1-.19.19-.32.25-.12.06-.25.1-.39.11-.14.01-.27,0-.4-.05ZM497.05,80.01c-.64-.23-1.29-.46-1.93-.69-.13-.05-.25-.11-.35-.2-.1-.09-.18-.2-.24-.32-.06-.12-.09-.25-.1-.39,0-.14.01-.27.06-.4.05-.13.11-.25.2-.35.09-.1.2-.18.32-.24.12-.06.25-.09.39-.1.14,0,.27.01.4.06.65.23,1.3.46,1.95.7.13.05.24.12.34.21.1.09.18.2.24.32.06.12.09.25.1.39,0,.14-.01.27-.06.4-.05.13-.12.24-.21.34-.09.1-.2.18-.32.24-.12.06-.25.09-.39.1-.14,0-.27-.01-.4-.06ZM502.84,82.22c-.64-.26-1.29-.51-1.93-.76-.13-.05-.24-.12-.34-.22-.1-.09-.18-.2-.23-.33-.06-.13-.08-.26-.09-.39,0-.14.02-.27.07-.4.05-.13.12-.24.22-.34.09-.1.2-.18.33-.23.13-.06.26-.08.39-.09s.27.02.4.07c.65.25,1.3.51,1.95.77.13.05.24.12.34.22.1.1.17.21.23.33.05.13.08.26.08.39s-.02.27-.07.4c-.05.13-.12.24-.22.34-.1.1-.21.17-.33.23-.13.05-.26.08-.39.08-.14,0-.27-.02-.4-.07ZM508.49,84.59c-.63-.28-1.26-.55-1.88-.81-.13-.05-.24-.13-.33-.23-.1-.1-.17-.21-.22-.34-.05-.13-.08-.26-.07-.4,0-.14.03-.27.08-.39.05-.13.13-.24.23-.33.1-.1.21-.17.34-.22.13-.05.26-.08.4-.07.14,0,.27.03.39.08.63.27,1.27.54,1.9.82.13.06.24.13.33.23.09.1.17.21.22.34.05.13.07.26.07.4,0,.14-.03.27-.09.39-.06.13-.13.24-.23.33s-.21.17-.34.22c-.13.05-.26.07-.4.07-.14,0-.27-.03-.39-.09ZM514.13,87.17c-.62-.3-1.25-.59-1.87-.88-.12-.06-.23-.14-.33-.24-.09-.1-.16-.22-.21-.34-.05-.13-.07-.26-.06-.4,0-.14.04-.27.09-.39.06-.12.14-.23.24-.33.1-.09.22-.16.34-.21.13-.05.26-.07.4-.06.14,0,.27.04.39.09.63.29,1.26.59,1.89.89.12.06.23.14.32.24.09.1.16.22.21.35.05.13.07.26.06.4s-.04.27-.1.39c-.06.12-.14.23-.24.32-.1.09-.22.16-.35.21-.13.05-.26.07-.4.06-.14,0-.27-.04-.39-.1ZM519.62,89.88c-.61-.31-1.22-.62-1.83-.93-.12-.06-.23-.14-.32-.25-.09-.1-.16-.22-.2-.35-.04-.13-.06-.26-.05-.4,0-.14.05-.27.11-.39s.14-.23.25-.32c.1-.09.22-.16.35-.2.13-.04.26-.06.4-.05.14,0,.27.05.39.11.62.31,1.23.62,1.85.94.12.06.23.15.32.25.09.1.15.22.2.35.04.13.06.26.05.4-.01.14-.05.27-.11.39-.06.12-.15.23-.25.32-.1.09-.22.15-.35.2s-.26.06-.4.05c-.14-.01-.27-.05-.39-.11ZM525.12,92.79c-.61-.33-1.21-.66-1.82-.99-.12-.06-.22-.15-.31-.26-.09-.11-.15-.22-.19-.36s-.05-.26-.04-.4c.01-.14.05-.26.12-.39.06-.12.15-.22.26-.31.11-.09.22-.15.36-.19.13-.04.26-.05.4-.04.14.01.26.05.39.12.61.33,1.22.66,1.84,1,.12.07.22.15.31.26.09.11.15.23.19.36.04.13.05.27.04.4-.01.14-.05.26-.12.38-.07.12-.15.22-.26.31-.11.09-.23.15-.36.19-.13.04-.27.05-.4.04-.14-.01-.26-.05-.38-.12ZM530.45,95.8c-.59-.34-1.19-.69-1.78-1.02-.12-.07-.22-.16-.3-.26-.08-.11-.14-.23-.18-.36-.04-.13-.05-.27-.03-.4.02-.14.06-.26.13-.38.07-.12.16-.22.26-.3.11-.08.23-.14.36-.18.13-.04.27-.05.4-.03s.26.06.38.13c.6.34,1.19.68,1.79,1.03.12.07.22.16.3.27.08.11.14.23.18.36.04.13.04.27.03.4-.02.14-.06.26-.13.38-.07.12-.16.22-.27.3-.11.08-.23.14-.36.18-.13.04-.27.04-.4.03s-.26-.06-.38-.13ZM535.79,99c-.59-.37-1.19-.73-1.78-1.09-.12-.07-.22-.16-.3-.27-.08-.11-.14-.23-.17-.36-.03-.13-.04-.27-.02-.4.02-.14.07-.26.14-.38.07-.12.16-.22.27-.3.11-.08.23-.14.37-.17.13-.03.27-.04.4-.02s.26.07.38.14c.6.36,1.2.73,1.8,1.1.12.07.22.16.3.27.08.11.14.23.17.37.03.13.04.27.02.4-.02.14-.07.26-.14.38-.07.12-.16.22-.27.3-.11.08-.23.14-.37.17-.13.03-.27.04-.4.02s-.26-.07-.38-.14Z" fill="#ffce4a"/>
    <polygon points="359.26 96.91 362.91 91.02 366.16 96.3 359.26 96.91" fill="#ffce4a"/>
    <polygon points="359.26 96.91 362.91 91.02 366.16 96.3 359.26 96.91" fill="none" stroke="#ffce4a" stroke-linecap="round" stroke-miterlimit="10" stroke-width="2.07"/>
    <path d="M460.58,70.57c0,.9-.09,1.8-.26,2.69-.18.89-.44,1.75-.78,2.58s-.77,1.63-1.27,2.38c-.5.75-1.07,1.45-1.71,2.09-.64.64-1.34,1.21-2.09,1.71-.75.5-1.55.93-2.38,1.27-.84.35-1.7.61-2.58.78-.89.18-1.78.26-2.69.26s-1.8-.09-2.69-.26c-.89-.18-1.75-.44-2.58-.78-.84-.35-1.63-.77-2.38-1.27-.75-.5-1.45-1.07-2.09-1.71-.64-.64-1.21-1.34-1.71-2.09-.5-.75-.93-1.55-1.27-2.38-.35-.84-.61-1.7-.78-2.58-.18-.89-.26-1.78-.26-2.69,0-.9.09-1.8.26-2.69.18-.89.44-1.75.78-2.58.35-.84.77-1.63,1.27-2.38.5-.75,1.07-1.45,1.71-2.09.64-.64,1.34-1.21,2.09-1.71.75-.5,1.55-.93,2.38-1.27.84-.35,1.7-.61,2.58-.78s1.78-.26,2.69-.26,1.8.09,2.69.26c.89.18,1.75.44,2.58.78.84.35,1.63.77,2.38,1.27.75.5,1.45,1.07,2.09,1.71.64.64,1.21,1.34,1.71,2.09.5.75.93,1.55,1.27,2.38s.61,1.7.78,2.58c.18.89.26,1.78.26,2.69Z" fill="#ffce4a"/>
    <path d="M446.56,75.88c-.7,0-1.32-.13-1.88-.38s-1.01-.62-1.35-1.12c-.34-.49-.54-1.09-.6-1.8h2.11c.07.57.25.99.52,1.26.28.27.65.41,1.12.41.4,0,.74-.12,1.01-.36s.41-.59.41-1.05-.13-.8-.39-1.07c-.26-.27-.7-.41-1.33-.41h-.88v-1.6h.84c.54,0,.93-.12,1.17-.36.24-.24.36-.54.36-.91s-.09-.64-.28-.86c-.18-.22-.5-.34-.94-.34-.38,0-.7.11-.98.34-.28.23-.45.58-.51,1.05h-2.12c.08-.62.28-1.16.59-1.61s.73-.8,1.25-1.04,1.13-.36,1.83-.36,1.3.11,1.8.32c.5.22.89.52,1.16.92.28.39.41.87.41,1.42,0,.46-.11.86-.32,1.21s-.48.62-.79.81c-.32.19-.64.29-.96.29v-.29c.47,0,.89.12,1.24.35.35.23.62.55.8.94.18.39.28.82.28,1.3,0,.6-.16,1.12-.47,1.56-.31.44-.74.78-1.28,1.01-.54.23-1.15.35-1.83.35Z"/>
    <rect x="212.67" y="91.23" width="137.73" height="55.09" fill="none" stroke="#f1f1f1" stroke-width="2.07"/>
    <path d="M264.7,123.94v-11.9h1.36v11.9h-1.36ZM265.59,123.94v-1.12h3.8c.73,0,1.31-.2,1.74-.6s.64-.93.64-1.6c0-.72-.23-1.29-.68-1.72s-1.06-.64-1.82-.64h-3.69v-1.09h3.5c.75,0,1.33-.18,1.75-.55.42-.36.63-.88.63-1.54,0-.62-.2-1.09-.59-1.42-.39-.33-.96-.5-1.71-.5h-3.59v-1.12h3.7c1.09,0,1.95.26,2.59.78.63.52.95,1.22.95,2.12,0,.56-.13,1.06-.38,1.5s-.6.79-1.04,1.03c-.44.25-.95.37-1.52.37l.08-.35c.61,0,1.15.14,1.63.43.48.29.86.67,1.14,1.17.28.49.42,1.05.42,1.68s-.15,1.18-.45,1.66c-.3.48-.73.85-1.28,1.12-.55.26-1.19.4-1.92.4h-3.92Z" fill="#f1f1f1"/>
    <path d="M278.61,122.98c.57,0,1.07-.14,1.49-.42.42-.28.74-.67.98-1.17.23-.5.35-1.07.35-1.72,0-.97-.26-1.75-.77-2.33s-1.19-.88-2.04-.88-1.52.29-2.03.88c-.52.58-.78,1.36-.78,2.33,0,.65.12,1.22.35,1.72.23.5.56.88.98,1.17.42.28.92.42,1.48.42ZM278.61,124.11c-.83,0-1.55-.19-2.18-.58-.63-.39-1.12-.91-1.46-1.58s-.52-1.42-.52-2.26.18-1.6.53-2.25c.35-.65.84-1.16,1.46-1.54s1.35-.56,2.17-.56,1.57.19,2.19.56c.62.37,1.11.89,1.45,1.54s.52,1.4.52,2.25-.17,1.59-.52,2.26-.83,1.19-1.45,1.58c-.62.39-1.35.58-2.19.58Z" fill="#f1f1f1"/>
    <path d="M288.73,122.94c.84,0,1.49-.29,1.97-.87s.71-1.37.71-2.37-.24-1.77-.71-2.34-1.13-.85-1.97-.85-1.5.29-1.98.87c-.48.58-.73,1.37-.73,2.37s.24,1.76.73,2.33c.48.57,1.15.86,1.98.86ZM288.93,124.09c-.79,0-1.46-.19-2-.58-.54-.39-.91-.93-1.11-1.64l.18-.03v2.1h-1.24v-11.9h1.32v5.44l-.18-.05c.21-.65.59-1.16,1.15-1.53.56-.37,1.22-.55,1.99-.55s1.4.18,1.96.55c.56.36.99.87,1.3,1.52s.46,1.41.46,2.28-.16,1.65-.48,2.31c-.32.66-.77,1.17-1.34,1.54-.57.36-1.25.55-2.02.55Z" fill="#f1f1f1"/>
    <polygon points="295.12 116.72 295.47 114.65 293.77 115.98 293.17 114.97 295.19 114.23 293.17 113.46 293.77 112.46 295.47 113.78 295.12 111.71 296.31 111.71 295.97 113.78 297.67 112.46 298.26 113.46 296.25 114.23 298.26 114.97 297.67 115.98 295.97 114.65 296.31 116.72 295.12 116.72" fill="#f1f1f1"/>
    <rect x="543.22" y="91.23" width="137.73" height="55.09" fill="#f1f1f1"/>
    <rect x="543.22" y="91.23" width="137.73" height="55.09" fill="none" stroke="#f1f1f1" stroke-width="2.07"/>
    <path d="M598.07,123.94v-11.9h1.36v11.9h-1.36ZM598.96,123.94v-1.12h3.8c.73,0,1.31-.2,1.74-.6.43-.4.64-.93.64-1.6,0-.72-.23-1.29-.68-1.72-.45-.43-1.06-.64-1.82-.64h-3.69v-1.09h3.5c.75,0,1.33-.18,1.75-.55.42-.36.63-.88.63-1.54,0-.62-.2-1.09-.59-1.42-.39-.33-.96-.5-1.71-.5h-3.59v-1.12h3.7c1.09,0,1.95.26,2.59.78s.95,1.22.95,2.12c0,.56-.13,1.06-.38,1.5-.25.44-.6.79-1.04,1.03-.44.25-.95.37-1.52.37l.08-.35c.61,0,1.15.14,1.63.43.48.29.86.67,1.14,1.17.28.49.42,1.05.42,1.68s-.15,1.18-.45,1.66c-.3.48-.73.85-1.28,1.12-.55.26-1.19.4-1.92.4h-3.92Z"/>
    <path d="M611.98,122.98c.57,0,1.07-.14,1.49-.42.42-.28.74-.67.98-1.17.23-.5.35-1.07.35-1.72,0-.97-.26-1.75-.77-2.33-.51-.58-1.19-.88-2.04-.88s-1.52.29-2.03.88c-.52.58-.78,1.36-.78,2.33,0,.65.12,1.22.35,1.72.23.5.56.88.98,1.17.42.28.92.42,1.48.42ZM611.98,124.11c-.83,0-1.55-.19-2.18-.58-.63-.39-1.12-.91-1.46-1.58-.35-.67-.52-1.42-.52-2.26s.18-1.6.53-2.25.84-1.16,1.46-1.54c.62-.37,1.35-.56,2.17-.56s1.57.19,2.19.56c.62.37,1.11.89,1.45,1.54s.52,1.4.52,2.25-.17,1.59-.52,2.26-.83,1.19-1.45,1.58c-.62.39-1.35.58-2.19.58Z"/>
    <path d="M622.1,122.94c.84,0,1.49-.29,1.97-.87s.71-1.37.71-2.37-.24-1.77-.71-2.34-1.13-.85-1.97-.85-1.5.29-1.98.87c-.48.58-.73,1.37-.73,2.37s.24,1.76.73,2.33,1.15.86,1.98.86ZM622.3,124.09c-.79,0-1.46-.19-2-.58-.54-.39-.91-.93-1.11-1.64l.18-.03v2.1h-1.24v-11.9h1.32v5.44l-.18-.05c.21-.65.59-1.16,1.15-1.53.56-.37,1.22-.55,1.99-.55s1.4.18,1.96.55c.56.36.99.87,1.3,1.52.31.65.46,1.41.46,2.28s-.16,1.65-.48,2.31c-.32.66-.77,1.17-1.34,1.54s-1.25.55-2.02.55Z"/>
    <rect x="212.67" y="173.87" width="137.73" height="55.09" fill="#f1f1f1"/>
    <rect x="212.67" y="173.87" width="137.73" height="55.09" fill="none" stroke="#f1f1f1" stroke-width="2.07"/>
    <path d="M265.04,201.77h6.21v1.19h-6.21v-1.19ZM272.22,206.58l-4.48-11.9h1.27l4.59,11.9h-1.39ZM262.76,206.58l4.59-11.9h1.19l-4.48,11.9h-1.31Z"/>
    <rect x="275.52" y="194.68" width="1.32" height="11.9"/>
    <path d="M279.39,196.23v-1.55h1.52v1.55h-1.52ZM279.49,206.58v-8.43h1.32v8.43h-1.32Z"/>
    <path d="M286.76,206.75c-.77,0-1.46-.19-2.06-.57-.6-.38-1.07-.9-1.42-1.57s-.52-1.42-.52-2.27.17-1.6.52-2.25.82-1.16,1.42-1.54c.6-.37,1.28-.56,2.04-.56.63,0,1.19.12,1.69.36.5.24.91.59,1.24,1.03s.53.97.62,1.56h-1.22c-.11-.54-.36-.98-.76-1.32-.4-.34-.91-.51-1.54-.51-.54,0-1.01.13-1.4.4-.4.26-.71.64-.93,1.12-.22.48-.33,1.05-.33,1.7s.11,1.22.33,1.72c.22.5.53.88.93,1.16.4.28.87.41,1.41.41.61,0,1.11-.17,1.52-.5s.67-.77.78-1.31h1.22c-.1.58-.32,1.1-.65,1.55s-.75.79-1.25,1.03c-.5.24-1.05.36-1.65.36Z"/>
    <path d="M295.65,206.75c-.8,0-1.52-.19-2.13-.57-.62-.38-1.1-.9-1.45-1.56-.35-.66-.53-1.42-.53-2.28s.17-1.62.52-2.27.83-1.17,1.46-1.53c.63-.36,1.35-.55,2.17-.55s1.46.17,2.04.51c.58.34,1.02.82,1.34,1.44.31.62.47,1.34.47,2.18,0,.11,0,.21,0,.31,0,.1-.02.21-.04.33h-6.96v-1.11h6.15l-.43.61c0-1.01-.22-1.79-.67-2.34-.45-.55-1.08-.82-1.89-.82s-1.51.29-2.02.87c-.51.58-.77,1.36-.77,2.34s.26,1.8.77,2.4c.51.6,1.2.9,2.06.9.54,0,1.01-.12,1.42-.36.41-.24.71-.58.89-1.02h1.26c-.28.77-.74,1.38-1.38,1.83-.64.45-1.4.67-2.26.67Z"/>
    <rect x="543.22" y="173.87" width="137.73" height="55.09" fill="none" stroke="#f1f1f1" stroke-width="2.07"/>
    <path d="M592.78,201.77h6.21v1.19h-6.21v-1.19ZM599.95,206.58l-4.48-11.9h1.27l4.59,11.9h-1.39ZM590.49,206.58l4.59-11.9h1.19l-4.48,11.9h-1.31Z" fill="#f1f1f1"/>
    <rect x="603.25" y="194.68" width="1.32" height="11.9" fill="#f1f1f1"/>
    <path d="M607.12,196.23v-1.55h1.52v1.55h-1.52ZM607.22,206.58v-8.43h1.32v8.43h-1.32Z" fill="#f1f1f1"/>
    <path d="M614.49,206.75c-.77,0-1.46-.19-2.06-.57-.6-.38-1.07-.9-1.42-1.57-.35-.67-.52-1.42-.52-2.27s.17-1.6.52-2.25c.35-.65.82-1.16,1.42-1.54.6-.37,1.28-.56,2.04-.56.63,0,1.19.12,1.69.36s.91.59,1.24,1.03c.33.45.53.97.62,1.56h-1.22c-.11-.54-.36-.98-.76-1.32-.4-.34-.91-.51-1.54-.51-.54,0-1.01.13-1.4.4-.4.26-.71.64-.93,1.12-.22.48-.33,1.05-.33,1.7s.11,1.22.33,1.72c.22.5.53.88.93,1.16.4.28.87.41,1.41.41.61,0,1.11-.17,1.52-.5.41-.34.67-.77.78-1.31h1.22c-.1.58-.32,1.1-.65,1.55s-.75.79-1.25,1.03-1.05.36-1.65.36Z" fill="#f1f1f1"/>
    <path d="M623.38,206.75c-.8,0-1.52-.19-2.13-.57-.62-.38-1.1-.9-1.45-1.56s-.53-1.42-.53-2.28.17-1.62.52-2.27c.35-.66.83-1.17,1.46-1.53.63-.36,1.35-.55,2.17-.55s1.46.17,2.04.51c.58.34,1.02.82,1.34,1.44.31.62.47,1.34.47,2.18,0,.11,0,.21,0,.31,0,.1-.02.21-.04.33h-6.96v-1.11h6.15l-.43.61c0-1.01-.22-1.79-.67-2.34-.45-.55-1.08-.82-1.89-.82s-1.51.29-2.02.87c-.51.58-.77,1.36-.77,2.34s.26,1.8.77,2.4c.51.6,1.2.9,2.06.9.54,0,1.01-.12,1.42-.36.41-.24.71-.58.89-1.02h1.26c-.28.77-.74,1.38-1.38,1.83-.64.45-1.4.67-2.26.67Z" fill="#f1f1f1"/>
    <polygon points="629.62 199.36 629.96 197.29 628.26 198.61 627.67 197.61 629.68 196.86 627.67 196.1 628.26 195.09 629.96 196.42 629.62 194.35 630.81 194.35 630.46 196.42 632.16 195.09 632.76 196.1 630.74 196.86 632.76 197.61 632.16 198.61 630.46 197.29 630.81 199.36 629.62 199.36" fill="#f1f1f1"/>
    <path d="M687.84,132.55c22.96,4.59,45.52,3.19,67.68-4.19" fill="none" stroke="#ffce4a" stroke-linecap="round" stroke-miterlimit="10" stroke-width="2.07"/>
    <polygon points="761.4 126.39 756.5 131.3 754.54 125.42 761.4 126.39" fill="#ffce4a"/>
    <polygon points="761.4 126.39 756.5 131.3 754.54 125.42 761.4 126.39" fill="none" stroke="#ffce4a" stroke-linecap="round" stroke-miterlimit="10" stroke-width="2.07"/>
    <path d="M763.59,111.89c-22.96-9.18-45.41-11.94-67.36-8.28" fill="none" stroke="#ffce4a" stroke-linecap="round" stroke-miterlimit="10" stroke-width="2.07"/>
    <polygon points="690.12 104.63 695.72 100.55 696.74 106.67 690.12 104.63" fill="#ffce4a"/>
    <polygon points="690.12 104.63 695.72 100.55 696.74 106.67 690.12 104.63" fill="none" stroke="#ffce4a" stroke-linecap="round" stroke-miterlimit="10" stroke-width="2.07"/>
    <path d="M715.38,101.56c0,.9.09,1.8.26,2.69.18.89.44,1.75.78,2.58.35.84.77,1.63,1.27,2.38.5.75,1.07,1.45,1.71,2.09.64.64,1.34,1.21,2.09,1.71.75.5,1.55.93,2.38,1.27.84.35,1.7.61,2.58.78.89.18,1.78.26,2.69.26s1.8-.09,2.69-.26c.89-.18,1.75-.44,2.58-.78.84-.35,1.63-.77,2.38-1.27.75-.5,1.45-1.07,2.09-1.71.64-.64,1.21-1.34,1.71-2.09.5-.75.93-1.55,1.27-2.38.35-.84.61-1.7.78-2.58s.26-1.78.26-2.69c0-.9-.09-1.8-.26-2.69-.18-.89-.44-1.75-.78-2.58-.35-.84-.77-1.63-1.27-2.38-.5-.75-1.07-1.45-1.71-2.09-.64-.64-1.34-1.21-2.09-1.71-.75-.5-1.55-.93-2.38-1.27-.84-.35-1.7-.61-2.58-.78-.89-.18-1.78-.26-2.69-.26s-1.8.09-2.69.26c-.89.18-1.75.44-2.58.78-.84.35-1.63.77-2.38,1.27-.75.5-1.45,1.07-2.09,1.71-.64.64-1.21,1.34-1.71,2.09-.5.75-.93,1.55-1.27,2.38-.35.84-.61,1.7-.78,2.58-.18.89-.26,1.78-.26,2.69Z" fill="#ffce4a"/>
    <path d="M728.7,106.73v-8.1l.23.21c-.14.28-.34.55-.59.79-.26.24-.56.45-.9.62-.34.17-.73.3-1.15.38v-2.07c.34-.05.69-.16,1.06-.34.37-.18.7-.39,1-.65.3-.25.51-.51.64-.76h1.78v9.92h-2.07Z"/>
    <path d="M708.5,135.99c0,.9.09,1.8.26,2.69.18.89.44,1.75.78,2.58.35.84.77,1.63,1.27,2.38.5.75,1.07,1.45,1.71,2.09.64.64,1.34,1.21,2.09,1.71.75.5,1.55.93,2.38,1.27.84.35,1.7.61,2.58.78.89.18,1.78.26,2.69.26.9,0,1.8-.09,2.69-.26.89-.18,1.75-.44,2.58-.78.84-.35,1.63-.77,2.38-1.27.75-.5,1.45-1.07,2.09-1.71.64-.64,1.21-1.34,1.71-2.09.5-.75.93-1.55,1.27-2.38.35-.84.61-1.7.78-2.58.18-.89.26-1.78.26-2.69,0-.9-.09-1.8-.26-2.69-.18-.89-.44-1.75-.78-2.58-.35-.84-.77-1.63-1.27-2.38s-1.07-1.45-1.71-2.09c-.64-.64-1.34-1.21-2.09-1.71-.75-.5-1.55-.93-2.38-1.27s-1.7-.61-2.58-.78c-.89-.18-1.78-.26-2.69-.26s-1.8.09-2.69.26c-.89.18-1.75.44-2.58.78s-1.63.77-2.38,1.27-1.45,1.07-2.09,1.71-1.21,1.34-1.71,2.09-.93,1.55-1.27,2.38-.61,1.7-.78,2.58c-.18.89-.26,1.78-.26,2.69Z" fill="#ffce4a"/>
    <path d="M718.39,141.16v-1.65c.91-.74,1.67-1.38,2.28-1.92.61-.54,1.1-1.01,1.46-1.43.36-.41.62-.79.78-1.13.16-.34.23-.68.23-1.02,0-.4-.11-.72-.32-.94s-.52-.34-.9-.34-.74.12-1.01.37c-.27.25-.43.59-.5,1.02h-2.12c.1-.94.48-1.67,1.14-2.21.66-.54,1.52-.81,2.56-.81s1.9.27,2.49.82c.6.55.9,1.31.9,2.28,0,.46-.08.9-.23,1.32-.15.42-.4.86-.75,1.31-.35.45-.82.94-1.43,1.48-.6.54-1.35,1.15-2.25,1.84l-.51-.62h5.36v1.63h-7.19Z"/>
    <path d="M820.4,100.49c0,1.02-.1,2.02-.3,3.02-.2,1-.49,1.97-.88,2.91-.39.94-.87,1.83-1.43,2.68-.57.85-1.21,1.63-1.93,2.35-.72.72-1.5,1.36-2.35,1.93-.85.57-1.74,1.04-2.68,1.43-.94.39-1.91.68-2.91.88-1,.2-2.01.3-3.02.3s-2.03-.1-3.02-.3c-1-.2-1.97-.49-2.91-.88s-1.83-.87-2.68-1.43c-.85-.57-1.63-1.21-2.35-1.93-.72-.72-1.36-1.5-1.93-2.35-.57-.85-1.04-1.74-1.43-2.68-.39-.94-.68-1.91-.88-2.91-.2-1-.3-2.01-.3-3.02s.1-2.03.3-3.02.49-1.97.88-2.91c.39-.94.87-1.83,1.43-2.68.57-.85,1.21-1.63,1.93-2.35.72-.72,1.5-1.36,2.35-1.93.85-.57,1.74-1.04,2.68-1.43s1.91-.68,2.91-.88c1-.2,2.01-.3,3.02-.3s2.03.1,3.02.3c1,.2,1.97.49,2.91.88.94.39,1.83.87,2.68,1.43.85.57,1.63,1.21,2.35,1.93.72.72,1.36,1.5,1.93,2.35s1.04,1.74,1.43,2.68c.39.94.68,1.91.88,2.91s.3,2.01.3,3.02Z" fill="#a6a6a6"/>
    <path d="M820.4,100.49c0,1.02-.1,2.02-.3,3.02-.2,1-.49,1.97-.88,2.91-.39.94-.87,1.83-1.43,2.68-.57.85-1.21,1.63-1.93,2.35-.72.72-1.5,1.36-2.35,1.93-.85.57-1.74,1.04-2.68,1.43-.94.39-1.91.68-2.91.88-1,.2-2.01.3-3.02.3s-2.03-.1-3.02-.3c-1-.2-1.97-.49-2.91-.88s-1.83-.87-2.68-1.43c-.85-.57-1.63-1.21-2.35-1.93-.72-.72-1.36-1.5-1.93-2.35-.57-.85-1.04-1.74-1.43-2.68-.39-.94-.68-1.91-.88-2.91-.2-1-.3-2.01-.3-3.02s.1-2.03.3-3.02.49-1.97.88-2.91c.39-.94.87-1.83,1.43-2.68.57-.85,1.21-1.63,1.93-2.35.72-.72,1.5-1.36,2.35-1.93.85-.57,1.74-1.04,2.68-1.43s1.91-.68,2.91-.88c1-.2,2.01-.3,3.02-.3s2.03.1,3.02.3c1,.2,1.97.49,2.91.88.94.39,1.83.87,2.68,1.43.85.57,1.63,1.21,2.35,1.93.72.72,1.36,1.5,1.93,2.35s1.04,1.74,1.43,2.68c.39.94.68,1.91.88,2.91s.3,2.01.3,3.02Z" fill="none" stroke="#a6a6a6" stroke-width="2.07"/>
    <path d="M804.91,153.49c8.26-.07,30.99,0,30.99-7.53,0,0-2.07-22.73-14.46-22.73-4.13,0-8.26,2.07-16.53,2.07s-12.4-2.07-16.53-2.07c-12.4,0-14.46,22.73-14.46,22.73,0,7.53,22.84,7.62,30.99,7.53" fill="#a6a6a6"/>
    <path d="M804.91,153.49c8.26-.07,30.99,0,30.99-7.53,0,0-2.07-22.73-14.46-22.73-4.13,0-8.26,2.07-16.53,2.07s-12.4-2.07-16.53-2.07c-12.4,0-14.46,22.73-14.46,22.73,0,7.53,22.84,7.62,30.99,7.53" fill="none" stroke="#a6a6a6" stroke-miterlimit="10" stroke-width="2.07"/>
    <path d="M800.02,144.6v-11.9h2.55v11.9h-2.55ZM802.1,144.6v-1.82h3.07c.55,0,.97-.15,1.25-.45.28-.3.42-.72.42-1.26s-.15-.99-.45-1.31c-.3-.32-.74-.48-1.3-.48h-2.99v-1.82h2.86c.52,0,.91-.12,1.18-.37.27-.25.4-.61.4-1.1s-.13-.85-.39-1.1c-.26-.25-.64-.37-1.15-.37h-2.91v-1.82h3.45c1.06,0,1.91.27,2.56.81.65.54.98,1.27.98,2.2,0,.58-.14,1.09-.41,1.5-.28.42-.64.74-1.11.96-.46.22-.98.33-1.55.33l.08-.35c.62,0,1.18.13,1.68.4.5.26.9.64,1.2,1.12.3.48.45,1.04.45,1.69s-.15,1.22-.45,1.71c-.3.49-.73.87-1.27,1.13-.55.26-1.19.4-1.93.4h-3.67Z" fill="#1a1a1a"/>
  </g>
</svg>