<?xml version="1.0" encoding="UTF-8"?>
<svg id="a" data-name="Layer 1" xmlns="http://www.w3.org/2000/svg" viewBox="0 0 1240 540">
  <defs>
    <style>
      .a {
        fill: #000000;
        stroke: none;
      }
      .b, .c {
        fill: #f1f1f1;
      }

      .d {
        fill: #141414;
      }

      .d, .c, .e, .f, .g, .h, .i, .j, .k {
        stroke-width: 3px;
      }

      .d, .e, .f, .i, .j, .k {
        stroke-miterlimit: 10;
      }

      .d, .h, .i, .j {
        stroke: #a6a6a6;
      }

      .c, .g {
        stroke: #f1f1f1;
      }

      .e, .f, .g {
        fill: none;
      }

      .e, .f, .k {
        stroke: #ffce4a;
        stroke-linecap: round;
      }

      .f {
        stroke-dasharray: 3 6;
      }

      .l {
        isolation: isolate;
      }

      .h, .m, .i {
        fill: #a6a6a6;
      }

      .n, .k {
        fill: #ffce4a;
      }

      .j, .o {
        fill: #1a1a1a;
      }
    </style>
  </defs>
  <rect class="a" x="0" y="0" width="1240" height="540" />
  <g>
    <g>
      <path class="d" d="M99.87,410.5h361.27c5.15,0,12.07,3.24,15.36,7.2l30.33,36.4c7.52,9.02,4.06,16.4-7.68,16.4H61.85c-11.74,0-15.2-7.38-7.68-16.4l30.33-36.4c3.3-3.96,10.21-7.2,15.36-7.2" pointer-events="all"/>
      <g class="l">
        <path class="m" d="M196.25,501v-14.4h2.12v14.4h-2.12ZM197.29,501v-1.74h8.32v1.74h-8.32Z"/>
        <path class="m" d="M211.57,501.2c-1.04,0-1.95-.23-2.74-.69-.79-.46-1.4-1.09-1.84-1.9s-.66-1.72-.66-2.75.22-1.95.67-2.74c.45-.79,1.06-1.4,1.84-1.85.78-.45,1.69-.67,2.73-.67s1.97.22,2.76.67c.79.45,1.4,1.06,1.83,1.85.43.79.65,1.7.65,2.74s-.22,1.94-.65,2.75c-.43.81-1.04,1.44-1.83,1.9-.79.46-1.71.69-2.76.69ZM211.57,499.5c.63,0,1.17-.15,1.63-.46.46-.31.82-.73,1.09-1.28.27-.55.4-1.19.4-1.92,0-1.09-.29-1.96-.87-2.59-.58-.63-1.33-.95-2.25-.95s-1.65.32-2.23.96c-.58.64-.87,1.5-.87,2.58,0,.73.13,1.37.39,1.92.26.55.63.97,1.1,1.28.47.31,1.01.46,1.61.46Z"/>
        <path class="m" d="M222.65,501.2c-1.33,0-2.39-.29-3.18-.88s-1.23-1.41-1.34-2.48h1.92c.09.59.36,1.04.81,1.35.45.31,1.06.47,1.83.47.68,0,1.2-.12,1.56-.36.36-.24.54-.58.54-1.02,0-.32-.1-.59-.31-.81-.21-.22-.61-.4-1.21-.55l-1.64-.38c-1.03-.25-1.79-.63-2.29-1.13s-.75-1.12-.75-1.85c0-.92.34-1.64,1.03-2.17.69-.53,1.63-.79,2.83-.79s2.14.27,2.87.8c.73.53,1.14,1.28,1.23,2.24h-1.92c-.08-.48-.31-.85-.69-1.11-.38-.26-.9-.39-1.55-.39-.61,0-1.08.11-1.41.33-.33.22-.49.52-.49.91,0,.32.12.59.37.8.25.21.66.39,1.23.54l1.68.42c.97.24,1.71.63,2.2,1.17s.74,1.19.74,1.95c0,.92-.36,1.64-1.07,2.16-.71.52-1.71.78-2.99.78Z"/>
        <path class="m" d="M231.75,501l5.42-14.4h1.84l-5.18,14.4h-2.08ZM234.49,495.26h7.72v1.76h-7.72v-1.76ZM242.89,501l-5.18-14.4h1.94l5.44,14.4h-2.2Z"/>
        <path class="m" d="M247.19,501v-10.2h1.98v2.4h.1v7.8h-2.08ZM254.43,501v-6.56c0-.71-.18-1.23-.53-1.58-.35-.35-.88-.52-1.57-.52-.6,0-1.13.13-1.59.4-.46.27-.82.63-1.08,1.1-.26.47-.39,1.02-.39,1.66l-.26-2.44c.33-.76.85-1.36,1.54-1.8.69-.44,1.5-.66,2.42-.66,1.09,0,1.95.31,2.58.92.63.61.94,1.43.94,2.44v7.04h-2.06Z"/>
        <path class="m" d="M263.57,505.3c-1.28,0-2.34-.29-3.17-.87s-1.34-1.35-1.51-2.31h1.96c.13.44.43.79.89,1.04.46.25,1.08.38,1.85.38,1,0,1.75-.25,2.24-.74.49-.49.74-1.23.74-2.2v-2.2l.18.04c-.2.77-.63,1.38-1.3,1.83-.67.45-1.47.67-2.4.67s-1.68-.21-2.36-.64c-.68-.43-1.21-1.02-1.58-1.79-.37-.77-.56-1.66-.56-2.69s.19-1.95.58-2.74.93-1.39,1.63-1.82c.7-.43,1.52-.64,2.45-.64s1.76.23,2.39.69,1.04,1.11,1.21,1.95l-.16.02v-2.48h1.98v9.78c0,1.47-.45,2.62-1.35,3.46-.9.84-2.14,1.26-3.71,1.26ZM263.67,499.26c.89,0,1.61-.31,2.15-.94.54-.63.81-1.49.81-2.58s-.27-1.91-.81-2.52c-.54-.61-1.26-.92-2.17-.92s-1.63.31-2.16.93c-.53.62-.8,1.48-.8,2.57s.27,1.91.81,2.53,1.26.93,2.17.93Z"/>
        <path class="m" d="M275.95,501.2c-1.03,0-1.93-.23-2.71-.68-.78-.45-1.39-1.08-1.83-1.88-.44-.8-.66-1.72-.66-2.76s.22-1.98.65-2.77c.43-.79,1.04-1.41,1.83-1.85.79-.44,1.69-.66,2.7-.66s1.84.21,2.57.63c.73.42,1.29,1,1.68,1.75.39.75.59,1.63.59,2.66,0,.16,0,.31-.01.45,0,.14-.02.28-.05.43h-8.56v-1.56h7.1l-.52.62c0-1.09-.25-1.93-.74-2.5s-1.18-.86-2.06-.86c-.95,0-1.7.32-2.25.97-.55.65-.83,1.54-.83,2.69s.28,2.07.83,2.72c.55.65,1.32.98,2.31.98.6,0,1.12-.12,1.56-.37.44-.25.77-.61.98-1.09h1.96c-.33.96-.9,1.71-1.69,2.26-.79.55-1.74.82-2.85.82Z"/>
        <path class="m" d="M282.89,501v-14.4h2.08v14.4h-2.08Z"/>
        <path class="m" d="M292.29,501.2c-1.03,0-1.93-.23-2.71-.68-.78-.45-1.39-1.08-1.83-1.88-.44-.8-.66-1.72-.66-2.76s.22-1.98.65-2.77c.43-.79,1.04-1.41,1.83-1.85.79-.44,1.69-.66,2.7-.66s1.84.21,2.57.63c.73.42,1.29,1,1.68,1.75.39.75.59,1.63.59,2.66,0,.16,0,.31-.01.45,0,.14-.02.28-.05.43h-8.56v-1.56h7.1l-.52.62c0-1.09-.25-1.93-.74-2.5s-1.18-.86-2.06-.86c-.95,0-1.7.32-2.25.97-.55.65-.83,1.54-.83,2.69s.28,2.07.83,2.72c.55.65,1.32.98,2.31.98.6,0,1.12-.12,1.56-.37.44-.25.77-.61.98-1.09h1.96c-.33.96-.9,1.71-1.69,2.26-.79.55-1.74.82-2.85.82Z"/>
        <path class="m" d="M302.95,501.2c-1.33,0-2.39-.29-3.18-.88s-1.23-1.41-1.34-2.48h1.92c.09.59.36,1.04.81,1.35.45.31,1.06.47,1.83.47.68,0,1.2-.12,1.56-.36.36-.24.54-.58.54-1.02,0-.32-.1-.59-.31-.81-.21-.22-.61-.4-1.21-.55l-1.64-.38c-1.03-.25-1.79-.63-2.29-1.13s-.75-1.12-.75-1.85c0-.92.34-1.64,1.03-2.17.69-.53,1.63-.79,2.83-.79s2.14.27,2.87.8c.73.53,1.14,1.28,1.23,2.24h-1.92c-.08-.48-.31-.85-.69-1.11-.38-.26-.9-.39-1.55-.39-.61,0-1.08.11-1.41.33-.33.22-.49.52-.49.91,0,.32.12.59.37.8.25.21.66.39,1.23.54l1.68.42c.97.24,1.71.63,2.2,1.17s.74,1.19.74,1.95c0,.92-.36,1.64-1.07,2.16-.71.52-1.71.78-2.99.78Z"/>
        <path class="m" d="M316.93,503.2c-1.36-1.24-2.36-2.6-3.01-4.08-.65-1.48-.97-2.99-.97-4.52s.33-3,.98-4.49c.65-1.49,1.65-2.86,3-4.11h2c-1.35,1.25-2.36,2.6-3.03,4.03-.67,1.43-1.01,2.96-1.01,4.57s.35,3.16,1.04,4.59c.69,1.43,1.69,2.77,3,4.01h-2Z"/>
        <path class="m" d="M326.23,501.2c-1.84,0-3.25-.54-4.24-1.62s-1.48-2.62-1.48-4.62v-8.36h2.12v8.6c0,1.37.31,2.42.94,3.13.63.71,1.51,1.07,2.66,1.07s2.07-.35,2.7-1.06c.63-.71.94-1.75.94-3.14v-8.6h2.12v8.4c0,1.97-.5,3.5-1.49,4.58-.99,1.08-2.42,1.62-4.27,1.62Z"/>
        <path class="m" d="M339.95,501.18c-1.73,0-3.12-.41-4.16-1.24-1.04-.83-1.65-2.01-1.82-3.54h2.06c.12,1,.52,1.76,1.2,2.28.68.52,1.6.78,2.76.78.97,0,1.71-.18,2.21-.54s.75-.87.75-1.54c0-.6-.17-1.08-.5-1.43-.33-.35-.86-.64-1.58-.87l-2.5-.8c-1.28-.41-2.22-.93-2.82-1.56-.6-.63-.9-1.42-.9-2.38,0-.81.2-1.51.61-2.1s.98-1.04,1.72-1.37c.74-.33,1.6-.49,2.59-.49,1.52,0,2.74.38,3.65,1.15.91.77,1.44,1.83,1.57,3.19h-2.06c-.16-.91-.51-1.57-1.04-1.99-.53-.42-1.27-.63-2.2-.63-.88,0-1.57.17-2.06.52-.49.35-.74.83-.74,1.46,0,.51.16.93.49,1.27.33.34.87.63,1.63.87l2.62.84c1.21.39,2.11.91,2.69,1.58.58.67.87,1.51.87,2.52,0,1.28-.44,2.27-1.32,2.97s-2.12,1.05-3.72,1.05Z"/>
        <path class="m" d="M346.01,501l5.42-14.4h1.84l-5.18,14.4h-2.08ZM348.75,495.26h7.72v1.76h-7.72v-1.76ZM357.15,501l-5.18-14.4h1.94l5.44,14.4h-2.2Z"/>
        <path class="m" d="M361.77,485.92c1.36,1.24,2.36,2.6,3.01,4.08.65,1.48.97,2.99.97,4.52s-.33,3-.98,4.49c-.65,1.49-1.65,2.86-3,4.11h-2c1.35-1.25,2.36-2.6,3.03-4.03.67-1.43,1.01-2.96,1.01-4.57s-.35-3.16-1.04-4.59c-.69-1.43-1.69-2.77-3-4.01h2Z"/>
      </g>
    </g>
    <path class="j" d="M209.5,390.5c0,18-23,50-29,50s-29-32-29-50c0-16.02,12.98-29,29-29s29,12.98,29,29M180.5,377.5c-7.18,0-13,5.82-13,13s5.82,13,13,13,13-5.82,13-13-5.82-13-13-13" pointer-events="all"/>
    <g>
      <path class="d" d="M779.87,410.5h361.27c5.15,0,12.07,3.24,15.36,7.2l30.33,36.4c7.52,9.02,4.06,16.4-7.68,16.4h-437.3c-11.74,0-15.2-7.38-7.68-16.4l30.33-36.4c3.3-3.96,10.21-7.2,15.36-7.2" pointer-events="all"/>
      <g class="l">
        <path class="m" d="M902.76,501v-14.4h2.12v14.4h-2.12ZM903.8,501v-1.74h8.32v1.74h-8.32Z"/>
        <path class="m" d="M918.08,501.2c-1.04,0-1.95-.23-2.74-.69-.79-.46-1.4-1.09-1.84-1.9-.44-.81-.66-1.72-.66-2.75s.22-1.95.67-2.74c.45-.79,1.06-1.4,1.84-1.85.78-.45,1.69-.67,2.73-.67s1.97.22,2.76.67c.79.45,1.4,1.06,1.83,1.85.43.79.65,1.7.65,2.74s-.22,1.94-.65,2.75c-.43.81-1.04,1.44-1.83,1.9-.79.46-1.71.69-2.76.69ZM918.08,499.5c.63,0,1.17-.15,1.63-.46.46-.31.82-.73,1.09-1.28.27-.55.4-1.19.4-1.92,0-1.09-.29-1.96-.87-2.59-.58-.63-1.33-.95-2.25-.95s-1.65.32-2.23.96c-.58.64-.87,1.5-.87,2.58,0,.73.13,1.37.39,1.92.26.55.63.97,1.1,1.28.47.31,1.01.46,1.61.46Z"/>
        <path class="m" d="M925.46,501v-10.2h1.98v2.4h.1v7.8h-2.08ZM932.7,501v-6.56c0-.71-.18-1.23-.53-1.58s-.88-.52-1.57-.52c-.6,0-1.13.13-1.59.4-.46.27-.82.63-1.08,1.1-.26.47-.39,1.02-.39,1.66l-.26-2.44c.33-.76.85-1.36,1.54-1.8.69-.44,1.5-.66,2.42-.66,1.09,0,1.95.31,2.58.92.63.61.94,1.43.94,2.44v7.04h-2.06Z"/>
        <path class="m" d="M944.94,501v-2.34l.2.06c-.21.76-.65,1.36-1.32,1.81-.67.45-1.47.67-2.4.67s-1.72-.22-2.41-.66-1.22-1.05-1.6-1.84-.57-1.71-.57-2.76.19-2,.58-2.8c.39-.8.93-1.42,1.62-1.86.69-.44,1.51-.66,2.44-.66s1.78.23,2.41.69c.63.46,1.05,1.1,1.25,1.93l-.28.04v-6.68h2.06v14.4h-1.98ZM941.94,499.46c.92,0,1.65-.32,2.18-.95.53-.63.8-1.51.8-2.63s-.27-1.96-.81-2.59c-.54-.63-1.27-.95-2.19-.95s-1.62.32-2.15.95c-.53.63-.79,1.52-.79,2.65s.26,1.97.79,2.59c.53.62,1.25.93,2.17.93Z"/>
        <path class="m" d="M954.28,501.2c-1.04,0-1.95-.23-2.74-.69-.79-.46-1.4-1.09-1.84-1.9-.44-.81-.66-1.72-.66-2.75s.22-1.95.67-2.74c.45-.79,1.06-1.4,1.84-1.85.78-.45,1.69-.67,2.73-.67s1.97.22,2.76.67c.79.45,1.4,1.06,1.83,1.85.43.79.65,1.7.65,2.74s-.22,1.94-.65,2.75c-.43.81-1.04,1.44-1.83,1.9-.79.46-1.71.69-2.76.69ZM954.28,499.5c.63,0,1.17-.15,1.63-.46.46-.31.82-.73,1.09-1.28.27-.55.4-1.19.4-1.92,0-1.09-.29-1.96-.87-2.59-.58-.63-1.33-.95-2.25-.95s-1.65.32-2.23.96c-.58.64-.87,1.5-.87,2.58,0,.73.13,1.37.39,1.92.26.55.63.97,1.1,1.28.47.31,1.01.46,1.61.46Z"/>
        <path class="m" d="M961.66,501v-10.2h1.98v2.4h.1v7.8h-2.08ZM968.9,501v-6.56c0-.71-.18-1.23-.53-1.58s-.88-.52-1.57-.52c-.6,0-1.13.13-1.59.4-.46.27-.82.63-1.08,1.1-.26.47-.39,1.02-.39,1.66l-.26-2.44c.33-.76.85-1.36,1.54-1.8.69-.44,1.5-.66,2.42-.66,1.09,0,1.95.31,2.58.92.63.61.94,1.43.94,2.44v7.04h-2.06Z"/>
        <path class="m" d="M981.78,503.2c-1.36-1.24-2.36-2.6-3.01-4.08-.65-1.48-.97-2.99-.97-4.52s.33-3,.98-4.49c.65-1.49,1.65-2.86,3-4.11h2c-1.35,1.25-2.36,2.6-3.03,4.03-.67,1.43-1.01,2.96-1.01,4.57s.35,3.16,1.04,4.59c.69,1.43,1.69,2.77,3,4.01h-2Z"/>
        <path class="m" d="M991.08,501.2c-1.84,0-3.25-.54-4.24-1.62-.99-1.08-1.48-2.62-1.48-4.62v-8.36h2.12v8.6c0,1.37.31,2.42.94,3.13s1.51,1.07,2.66,1.07,2.07-.35,2.7-1.06c.63-.71.94-1.75.94-3.14v-8.6h2.12v8.4c0,1.97-.5,3.5-1.49,4.58-.99,1.08-2.42,1.62-4.27,1.62Z"/>
        <path class="m" d="M999.66,501v-14.4h2.12v14.4h-2.12ZM1008.8,501l-7.5-7.48h2.7l7.78,7.48h-2.98ZM1001.34,493.52l7.14-6.92h2.9l-7.38,6.92h-2.66Z"/>
        <path class="m" d="M1014.64,485.92c1.36,1.24,2.36,2.6,3.01,4.08s.97,2.99.97,4.52-.33,3-.98,4.49c-.65,1.49-1.65,2.86-3,4.11h-2c1.35-1.25,2.36-2.6,3.03-4.03.67-1.43,1.01-2.96,1.01-4.57s-.35-3.16-1.04-4.59c-.69-1.43-1.69-2.77-3-4.01h2Z"/>
      </g>
    </g>
    <path class="j" d="M1089.5,390.5c0,18-23,50-29,50s-29-32-29-50c0-16.02,12.98-29,29-29s29,12.98,29,29M1060.5,377.5c-7.18,0-13,5.82-13,13s5.82,13,13,13,13-5.82,13-13-5.82-13-13-13" pointer-events="all"/>
  </g>
  <g>
    <g>
      <path class="f" d="M490.5,250.5c86.67-53.33,169.83-55.49,249.48-6.47" pointer-events="stroke"/>
      <path class="k" d="M747.64,248.74l-10.02-.88,4.72-7.67,5.3,8.55Z" pointer-events="all"/>
    </g>
    <g>
      <circle class="n" cx="620.5" cy="210.5" r="20" pointer-events="all"/>
      <g class="l">
        <path d="M620.22,217.2c-1.01,0-1.92-.18-2.73-.55-.81-.37-1.46-.91-1.96-1.62-.5-.71-.79-1.58-.87-2.61h3.06c.11.83.36,1.44.76,1.83.4.39.94.59,1.62.59.59,0,1.08-.17,1.47-.52.39-.35.59-.85.59-1.52s-.19-1.16-.57-1.55-1.02-.59-1.93-.59h-1.28v-2.32h1.22c.79,0,1.35-.17,1.7-.52s.52-.79.52-1.32-.13-.92-.4-1.25c-.27-.33-.72-.49-1.36-.49-.55,0-1.02.17-1.42.5-.4.33-.65.84-.74,1.52h-3.08c.12-.91.41-1.69.86-2.34s1.06-1.16,1.82-1.51c.76-.35,1.65-.53,2.66-.53s1.88.16,2.61.47,1.29.76,1.69,1.33.6,1.26.6,2.06c0,.67-.15,1.25-.46,1.76-.31.51-.69.9-1.15,1.18s-.92.42-1.39.42l-.02-.42c.71,0,1.31.17,1.82.51.51.34.89.79,1.16,1.36s.4,1.2.4,1.89c0,.87-.23,1.62-.68,2.26-.45.64-1.07,1.13-1.86,1.47-.79.34-1.67.51-2.66.51Z"/>
      </g>
    </g>
    <g>
      <rect class="c" x="280.5" y="240.5" width="200" height="80" pointer-events="all"/>
      <g class="l">
        <path d="M353.06,287l6.36-17.28h2.69l-5.98,17.28h-3.07ZM356.35,280.21h9.46v2.5h-9.46v-2.5ZM366.09,287l-5.95-17.28h2.83l6.34,17.28h-3.22Z"/>
        <path d="M371.59,287v-17.28h3.02v17.28h-3.02Z"/>
        <path d="M377.68,272.74v-3.34h3.29v3.34h-3.29ZM377.83,287v-12.24h3.02v12.24h-3.02Z"/>
        <path d="M389.32,287.24c-1.23,0-2.32-.27-3.25-.82-.94-.54-1.67-1.3-2.21-2.27-.54-.97-.8-2.07-.8-3.3s.27-2.32.8-3.28c.54-.95,1.27-1.7,2.21-2.24.94-.54,2.02-.82,3.25-.82,1.01,0,1.92.19,2.74.56.82.38,1.49.9,2.02,1.58.53.68.86,1.47,1.01,2.36h-2.9c-.18-.66-.51-1.17-1.01-1.54s-1.1-.55-1.8-.55c-.66,0-1.22.16-1.69.48-.47.32-.84.78-1.09,1.37s-.38,1.28-.38,2.06.13,1.5.38,2.09.62,1.05,1.1,1.38c.48.33,1.04.49,1.68.49.7,0,1.3-.18,1.8-.55.5-.37.83-.88,1.01-1.54h2.9c-.14.9-.48,1.68-1.02,2.36-.54.68-1.21,1.21-2.02,1.58-.81.38-1.72.56-2.72.56Z"/>
        <path d="M402.69,287.24c-1.3,0-2.43-.27-3.4-.82-.97-.54-1.72-1.3-2.26-2.26-.54-.96-.8-2.06-.8-3.31s.27-2.35.8-3.3c.54-.95,1.28-1.7,2.24-2.23s2.08-.8,3.36-.8,2.27.25,3.17.76,1.59,1.21,2.09,2.12c.5.91.74,1.98.74,3.19,0,.22,0,.43-.02.62-.02.19-.04.38-.07.58h-10.44v-2.11h8.11l-.62.58c0-1.15-.26-2.02-.79-2.59s-1.26-.86-2.21-.86c-1.02,0-1.84.35-2.44,1.06-.6.7-.9,1.72-.9,3.05s.3,2.32.9,3.01c.6.7,1.45,1.04,2.56,1.04.64,0,1.2-.12,1.68-.36.48-.24.83-.61,1.06-1.1h2.86c-.4,1.15-1.08,2.06-2.03,2.74-.95.67-2.15,1.01-3.59,1.01Z"/>
      </g>
    </g>
    <g>
      <rect class="g" x="760.5" y="240.5" width="200" height="80" pointer-events="all"/>
      <g class="l">
        <path class="b" d="M829.05,287l6.5-17.28h2.21l-6.22,17.28h-2.5ZM832.34,280.11h9.26v2.11h-9.26v-2.11ZM842.42,287l-6.22-17.28h2.33l6.53,17.28h-2.64Z"/>
        <path class="b" d="M847.58,287v-17.28h2.5v17.28h-2.5Z"/>
        <path class="b" d="M853.46,272.36v-2.81h2.76v2.81h-2.76ZM853.58,287v-12.24h2.5v12.24h-2.5Z"/>
        <path class="b" d="M864.62,287.24c-1.17,0-2.21-.28-3.12-.83s-1.63-1.31-2.15-2.27c-.52-.96-.78-2.06-.78-3.29s.26-2.32.78-3.28c.52-.95,1.24-1.7,2.15-2.24s1.94-.82,3.1-.82c.98,0,1.85.18,2.62.55.77.37,1.4.88,1.9,1.54.5.66.82,1.43.96,2.33h-2.35c-.16-.72-.51-1.3-1.04-1.73s-1.21-.65-2.03-.65c-.7,0-1.32.18-1.85.53-.53.35-.94.85-1.22,1.49s-.43,1.4-.43,2.28.14,1.62.43,2.28c.29.66.7,1.16,1.22,1.52.53.36,1.15.54,1.87.54.78,0,1.45-.21,2-.64s.91-1,1.07-1.72h2.35c-.16.88-.49,1.65-1,2.3s-1.14,1.17-1.91,1.54c-.77.37-1.62.55-2.57.55Z"/>
        <path class="b" d="M877.8,287.24c-1.23,0-2.32-.27-3.25-.82s-1.67-1.3-2.2-2.26c-.53-.96-.79-2.06-.79-3.31s.26-2.37.78-3.32c.52-.95,1.25-1.69,2.2-2.22.94-.53,2.02-.79,3.24-.79s2.21.25,3.08.76,1.54,1.2,2.02,2.1c.47.9.71,1.96.71,3.19,0,.19,0,.37-.01.54,0,.17-.03.34-.06.52h-10.27v-1.87h8.52l-.62.74c0-1.31-.3-2.31-.89-3-.59-.69-1.42-1.03-2.47-1.03-1.14,0-2.04.39-2.7,1.16-.66.78-1,1.85-1,3.23s.33,2.48,1,3.26c.66.78,1.59,1.18,2.77,1.18.72,0,1.34-.15,1.87-.44.53-.3.92-.73,1.18-1.31h2.35c-.4,1.15-1.08,2.06-2.03,2.71-.95.66-2.09.98-3.42.98Z"/>
        <path class="b" d="M886.63,276.75l.58-2.86-2.3,1.9-1.08-1.82,2.81-.96-2.81-.98,1.08-1.82,2.3,1.9-.58-2.86h2.18l-.55,2.86,2.28-1.9,1.08,1.82-2.81.98,2.81.96-1.08,1.82-2.28-1.9.55,2.86h-2.18Z"/>
      </g>
    </g>
    <g>
      <path class="e" d="M270.5,300.5c-33.33,6.67-66.09,4.64-98.28-6.09" pointer-events="stroke"/>
      <path class="k" d="M163.68,291.56l9.96-1.42-2.84,8.54-7.12-7.12Z" pointer-events="all"/>
    </g>
    <g>
      <path class="e" d="M160.5,270.5c33.33-13.33,65.94-17.34,97.81-12.03" pointer-events="stroke"/>
      <path class="k" d="M267.19,259.95l-9.62,2.96,1.48-8.88,8.14,5.92Z" pointer-events="all"/>
    </g>
    <g>
      <circle class="n" cx="210.5" cy="255.5" r="20" pointer-events="all"/>
      <g class="l">
        <path d="M209.79,262v-11.76l.34.3c-.2.41-.49.8-.86,1.15-.37.35-.81.65-1.31.9-.5.25-1.06.43-1.67.55v-3c.49-.07,1.01-.23,1.54-.49.53-.26,1.02-.57,1.45-.94.43-.37.74-.74.93-1.11h2.58v14.4h-3Z"/>
      </g>
    </g>
    <g>
      <circle class="n" cx="220.5" cy="305.5" r="20" pointer-events="all"/>
      <g class="l">
        <path d="M215.05,312v-2.4c1.32-1.08,2.42-2.01,3.31-2.79.89-.78,1.59-1.47,2.12-2.07.53-.6.9-1.15,1.13-1.64.23-.49.34-.99.34-1.48,0-.59-.16-1.04-.47-1.37-.31-.33-.75-.49-1.31-.49s-1.07.18-1.46.54c-.39.36-.63.85-.72,1.48h-3.08c.15-1.36.7-2.43,1.66-3.21.96-.78,2.2-1.17,3.72-1.17s2.75.4,3.62,1.19c.87.79,1.3,1.9,1.3,3.31,0,.67-.11,1.31-.33,1.92-.22.61-.58,1.25-1.09,1.9-.51.65-1.2,1.37-2.07,2.15-.87.78-1.96,1.67-3.27,2.67l-.74-.9h7.78v2.36h-10.44Z"/>
      </g>
    </g>
    <g>
      <path class="e" d="M970.5,300.5c33.33,6.67,66.09,4.64,98.28-6.09" pointer-events="stroke"/>
      <path class="k" d="M1077.32,291.56l-7.12,7.12-2.84-8.54,9.96,1.42Z" pointer-events="all"/>
    </g>
    <g>
      <path class="e" d="M1080.5,270.5c-33.33-13.33-65.94-17.34-97.81-12.03" pointer-events="stroke"/>
      <path class="k" d="M973.81,259.95l8.14-5.92,1.48,8.88-9.62-2.96Z" pointer-events="all"/>
    </g>
    <g>
      <circle class="n" cx="1030.5" cy="255.5" r="20" pointer-events="all"/>
      <g class="l">
        <path d="M1031.48,262v-3.8l.16-.4v-8.22l1.22.66-5.84,7.74-1.42-1.06h10.44v2.36h-11.56v-2.36l7.08-9.32h3.04v14.4h-3.12Z"/>
      </g>
    </g>
    <g>
      <circle class="n" cx="1020.5" cy="305.5" r="20" pointer-events="all"/>
      <g class="l">
        <path d="M1020.14,312.2c-1.48,0-2.69-.38-3.64-1.14-.95-.76-1.53-1.83-1.76-3.2h3.06c.11.61.37,1.1.8,1.45.43.35.91.53,1.46.53.63,0,1.13-.22,1.51-.65.38-.43.57-1.09.57-1.97s-.18-1.48-.54-1.93c-.36-.45-.85-.67-1.48-.67-.36,0-.7.08-1.02.25-.32.17-.59.44-.8.81h-2.8l.74-8.08h8.28v2.36h-7.2l1.64-.22-.36,4.5-1-.14c.35-.55.77-.96,1.27-1.25.5-.29,1.14-.43,1.91-.43.92,0,1.73.2,2.42.6.69.4,1.23.96,1.62,1.68s.58,1.57.58,2.56c0,1.04-.22,1.93-.66,2.66-.44.73-1.05,1.3-1.84,1.69-.79.39-1.71.59-2.76.59Z"/>
      </g>
    </g>
    <g>
      <g>
        <circle class="h" cx="100.5" cy="253.95" r="22.5" pointer-events="all"/>
        <path class="i" d="M100.5,330.9c12-.1,45,0,45-10.94,0,0-3-33-21-33-6,0-12,3-24,3s-18-3-24-3c-18,0-21,33-21,33,0,10.94,33.17,11.06,45,10.94" pointer-events="all"/>
      </g>
      <g class="l">
        <path class="o" d="M91.84,319l6.19-17.28h3.17l-5.69,17.28h-3.67ZM95.1,312.3h9.7v2.88h-9.7v-2.88ZM104.51,319l-5.66-17.28h3.31l6.19,17.28h-3.84Z"/>
      </g>
    </g>
    <g>
      <g>
        <circle class="h" cx="1140.5" cy="253.95" r="22.5" pointer-events="all"/>
        <path class="i" d="M1140.5,330.9c12-.1,45,0,45-10.94,0,0-3-33-21-33-6,0-12,3-24,3s-18-3-24-3c-18,0-21,33-21,33,0,10.94,33.17,11.06,45,10.94" pointer-events="all"/>
      </g>
      <g class="l">
        <path class="o" d="M1133.57,319v-17.28h3.7v17.28h-3.7ZM1136.59,319v-2.64h4.46c.8,0,1.4-.22,1.81-.66s.61-1.05.61-1.84-.22-1.43-.66-1.9c-.44-.46-1.07-.7-1.88-.7h-4.34v-2.64h4.15c.75,0,1.32-.18,1.72-.54.39-.36.59-.89.59-1.6s-.19-1.24-.56-1.6c-.38-.36-.93-.54-1.67-.54h-4.22v-2.64h5.02c1.54,0,2.78.39,3.72,1.18.94.78,1.42,1.85,1.42,3.19,0,.85-.2,1.58-.6,2.18-.4.61-.94,1.07-1.61,1.39s-1.42.48-2.26.48l.12-.5c.9,0,1.71.19,2.44.58s1.31.92,1.74,1.62.65,1.52.65,2.46-.22,1.77-.66,2.48c-.44.71-1.06,1.26-1.85,1.64-.79.38-1.72.58-2.8.58h-5.33Z"/>
      </g>
    </g>
  </g>
</svg>