<?xml version="1.0" encoding="UTF-8"?>
<svg id="a" data-name="Layer 1" xmlns="http://www.w3.org/2000/svg" xmlns:xlink="http://www.w3.org/1999/xlink" viewBox="0 0 30 30">
  <defs>
    <clipPath id="b">
      <rect width="29.52" height="29.52" fill="none"/>
    </clipPath>
  </defs>
  <g clip-path="url(#b)">
    <path d="M28.81,14.58c0,.93-.09,1.86-.27,2.78-.18.92-.45,1.81-.81,2.67-.36.86-.8,1.68-1.31,2.46-.52.78-1.11,1.5-1.77,2.16-.66.66-1.38,1.25-2.16,1.77-.78.52-1.6.96-2.46,1.31-.86.36-1.75.63-2.67.81-.92.18-1.84.27-2.78.27-.93,0-1.86-.09-2.78-.27-.92-.18-1.81-.45-2.67-.81-.86-.36-1.68-.8-2.46-1.31-.78-.52-1.5-1.11-2.16-1.77-.66-.66-1.25-1.38-1.77-2.16-.52-.78-.96-1.6-1.31-2.46-.36-.86-.63-1.75-.81-2.67-.18-.92-.27-1.84-.27-2.78,0-.93.09-1.86.27-2.78.18-.92.45-1.81.81-2.67.36-.86.8-1.68,1.31-2.46.52-.78,1.11-1.5,1.77-2.16.66-.66,1.38-1.25,2.16-1.77.78-.52,1.6-.96,2.46-1.31.86-.36,1.75-.63,2.67-.81.92-.18,1.84-.27,2.78-.27s1.86.09,2.78.27c.92.18,1.81.45,2.67.81.86.36,1.68.8,2.46,1.31.78.52,1.5,1.11,2.16,1.77s1.25,1.38,1.77,2.16c.52.78.96,1.6,1.31,2.46.36.86.63,1.75.81,2.67.18.92.27,1.84.27,2.78Z" fill="#ffce4a"/>
    <path d="M12.26,19.92c.14-1.62.54-3.18,1.2-4.69.66-1.5,1.5-2.89,2.51-4.15v.27h-5.49v-1.68h7.55v1.56c-.64.92-1.21,1.84-1.69,2.77-.48.93-.87,1.88-1.17,2.85-.29.97-.48,1.99-.57,3.05h-2.35Z"/>
  </g>
</svg>