<?xml version="1.0" encoding="UTF-8"?>
<svg id="a" data-name="Layer 1" xmlns="http://www.w3.org/2000/svg" xmlns:xlink="http://www.w3.org/1999/xlink" viewBox="0 0 30 30">
  <defs>
    <clipPath id="b">
      <rect width="29.52" height="29.52" fill="none"/>
    </clipPath>
  </defs>
  <g clip-path="url(#b)">
    <path d="M28.81,14.58c0,.93-.09,1.86-.27,2.78-.18.92-.45,1.81-.81,2.67-.36.86-.8,1.68-1.31,2.46-.52.78-1.11,1.5-1.77,2.16-.66.66-1.38,1.25-2.16,1.77-.78.52-1.6.96-2.46,1.31-.86.36-1.75.63-2.67.81-.92.18-1.84.27-2.78.27-.93,0-1.86-.09-2.78-.27-.92-.18-1.81-.45-2.67-.81-.86-.36-1.68-.8-2.46-1.31-.78-.52-1.5-1.11-2.16-1.77-.66-.66-1.25-1.38-1.77-2.16-.52-.78-.96-1.6-1.31-2.46-.36-.86-.63-1.75-.81-2.67-.18-.92-.27-1.84-.27-2.78,0-.93.09-1.86.27-2.78.18-.92.45-1.81.81-2.67.36-.86.8-1.68,1.31-2.46.52-.78,1.11-1.5,1.77-2.16.66-.66,1.38-1.25,2.16-1.77.78-.52,1.6-.96,2.46-1.31.86-.36,1.75-.63,2.67-.81.92-.18,1.84-.27,2.78-.27s1.86.09,2.78.27c.92.18,1.81.45,2.67.81.86.36,1.68.8,2.46,1.31.78.52,1.5,1.11,2.16,1.77s1.25,1.38,1.77,2.16c.52.78.96,1.6,1.31,2.46.36.86.63,1.75.81,2.67.18.92.27,1.84.27,2.78Z" fill="#ffce4a"/>
    <path d="M14.24,20.06c-1.05,0-1.92-.27-2.59-.81-.67-.54-1.09-1.3-1.25-2.28h2.18c.08.44.27.78.57,1.03.3.25.65.38,1.04.38.45,0,.8-.15,1.07-.46.27-.31.41-.78.41-1.4s-.13-1.06-.38-1.37-.61-.48-1.05-.48c-.26,0-.5.06-.73.18-.23.12-.42.31-.57.58h-1.99l.53-5.75h5.89v1.68h-5.12l1.17-.16-.26,3.2-.71-.1c.25-.39.55-.69.9-.89.36-.2.81-.31,1.36-.31.65,0,1.23.14,1.72.43.49.28.88.68,1.15,1.2.28.51.41,1.12.41,1.82,0,.74-.16,1.37-.47,1.89s-.75.92-1.31,1.2c-.56.28-1.21.42-1.96.42Z"/>
  </g>
</svg>