<?xml version="1.0" encoding="UTF-8"?>
<svg id="a" data-name="Layer 1" xmlns="http://www.w3.org/2000/svg" xmlns:xlink="http://www.w3.org/1999/xlink" viewBox="0 0 30 30">
  <defs>
    <clipPath id="b">
      <rect width="29.52" height="29.52" fill="none"/>
    </clipPath>
  </defs>
  <g clip-path="url(#b)">
    <path d="M28.81,14.58c0,.93-.09,1.86-.27,2.78-.18.92-.45,1.81-.81,2.67-.36.86-.8,1.68-1.31,2.46-.52.78-1.11,1.5-1.77,2.16-.66.66-1.38,1.25-2.16,1.77-.78.52-1.6.96-2.46,1.31-.86.36-1.75.63-2.67.81-.92.18-1.84.27-2.78.27-.93,0-1.86-.09-2.78-.27-.92-.18-1.81-.45-2.67-.81-.86-.36-1.68-.8-2.46-1.31-.78-.52-1.5-1.11-2.16-1.77-.66-.66-1.25-1.38-1.77-2.16-.52-.78-.96-1.6-1.31-2.46-.36-.86-.63-1.75-.81-2.67-.18-.92-.27-1.84-.27-2.78,0-.93.09-1.86.27-2.78.18-.92.45-1.81.81-2.67.36-.86.8-1.68,1.31-2.46.52-.78,1.11-1.5,1.77-2.16.66-.66,1.38-1.25,2.16-1.77.78-.52,1.6-.96,2.46-1.31.86-.36,1.75-.63,2.67-.81.92-.18,1.84-.27,2.78-.27s1.86.09,2.78.27c.92.18,1.81.45,2.67.81.86.36,1.68.8,2.46,1.31.78.52,1.5,1.11,2.16,1.77s1.25,1.38,1.77,2.16c.52.78.96,1.6,1.31,2.46.36.86.63,1.75.81,2.67.18.92.27,1.84.27,2.78Z" fill="#ffce4a"/>
    <polygon points="15.11 19.92 15.11 17.21 15.23 16.93 15.23 11.08 16.09 11.55 11.94 17.06 10.93 16.3 18.36 16.3 18.36 17.98 10.13 17.98 10.13 16.3 15.17 9.67 17.33 9.67 17.33 19.92 15.11 19.92"/>
  </g>
</svg>