<?xml version="1.0" encoding="UTF-8"?>
<svg id="a" data-name="Layer 1" xmlns="http://www.w3.org/2000/svg" xmlns:xlink="http://www.w3.org/1999/xlink" viewBox="0 0 30 30">
  <defs>
    <clipPath id="b">
      <rect width="29.52" height="29.52" fill="none"/>
    </clipPath>
  </defs>
  <g clip-path="url(#b)">
    <path d="M28.81,14.58c0,.93-.09,1.86-.27,2.78-.18.92-.45,1.81-.81,2.67-.36.86-.8,1.68-1.31,2.46-.52.78-1.11,1.5-1.77,2.16-.66.66-1.38,1.25-2.16,1.77-.78.52-1.6.96-2.46,1.31-.86.36-1.75.63-2.67.81-.92.18-1.84.27-2.78.27-.93,0-1.86-.09-2.78-.27-.92-.18-1.81-.45-2.67-.81-.86-.36-1.68-.8-2.46-1.31-.78-.52-1.5-1.11-2.16-1.77-.66-.66-1.25-1.38-1.77-2.16-.52-.78-.96-1.6-1.31-2.46-.36-.86-.63-1.75-.81-2.67-.18-.92-.27-1.84-.27-2.78,0-.93.09-1.86.27-2.78.18-.92.45-1.81.81-2.67.36-.86.8-1.68,1.31-2.46.52-.78,1.11-1.5,1.77-2.16.66-.66,1.38-1.25,2.16-1.77.78-.52,1.6-.96,2.46-1.31.86-.36,1.75-.63,2.67-.81.92-.18,1.84-.27,2.78-.27s1.86.09,2.78.27c.92.18,1.81.45,2.67.81.86.36,1.68.8,2.46,1.31.78.52,1.5,1.11,2.16,1.77s1.25,1.38,1.77,2.16c.52.78.96,1.6,1.31,2.46.36.86.63,1.75.81,2.67.18.92.27,1.84.27,2.78Z" fill="#ffce4a"/>
    <path d="M14.32,20.06c-.72,0-1.37-.13-1.94-.39-.57-.26-1.04-.64-1.39-1.15-.36-.51-.56-1.13-.62-1.86h2.18c.08.59.26,1.02.54,1.3.28.28.67.42,1.15.42.42,0,.77-.12,1.05-.37s.42-.61.42-1.08-.14-.82-.41-1.1c-.27-.28-.73-.42-1.37-.42h-.91v-1.65h.87c.56,0,.96-.12,1.21-.37.25-.25.37-.56.37-.94s-.09-.66-.28-.89c-.19-.23-.51-.35-.97-.35-.39,0-.73.12-1.01.36-.28.24-.46.6-.53,1.08h-2.19c.09-.64.29-1.2.61-1.66s.75-.82,1.29-1.07c.54-.25,1.17-.38,1.89-.38s1.34.11,1.86.33.92.54,1.2.95c.28.41.43.9.43,1.47,0,.47-.11.89-.33,1.25s-.49.64-.82.84-.66.3-.99.3v-.3c.49,0,.92.12,1.28.36.36.24.64.56.83.97.19.4.28.85.28,1.34,0,.62-.16,1.15-.48,1.61s-.76.8-1.32,1.05c-.56.24-1.19.36-1.89.36Z"/>
  </g>
</svg>