<?xml version="1.0" encoding="UTF-8"?>
<svg id="a" data-name="Layer 1" xmlns="http://www.w3.org/2000/svg" xmlns:xlink="http://www.w3.org/1999/xlink" viewBox="0 0 30 30">
  <defs>
    <clipPath id="b">
      <rect width="29.52" height="29.52" fill="none"/>
    </clipPath>
  </defs>
  <g clip-path="url(#b)">
    <path d="M28.81,14.58c0,.93-.09,1.86-.27,2.78-.18.92-.45,1.81-.81,2.67-.36.86-.8,1.68-1.31,2.46-.52.78-1.11,1.5-1.77,2.16-.66.66-1.38,1.25-2.16,1.77-.78.52-1.6.96-2.46,1.31-.86.36-1.75.63-2.67.81-.92.18-1.84.27-2.78.27-.93,0-1.86-.09-2.78-.27-.92-.18-1.81-.45-2.67-.81-.86-.36-1.68-.8-2.46-1.31-.78-.52-1.5-1.11-2.16-1.77-.66-.66-1.25-1.38-1.77-2.16-.52-.78-.96-1.6-1.31-2.46-.36-.86-.63-1.75-.81-2.67-.18-.92-.27-1.84-.27-2.78,0-.93.09-1.86.27-2.78.18-.92.45-1.81.81-2.67.36-.86.8-1.68,1.31-2.46.52-.78,1.11-1.5,1.77-2.16.66-.66,1.38-1.25,2.16-1.77.78-.52,1.6-.96,2.46-1.31.86-.36,1.75-.63,2.67-.81.92-.18,1.84-.27,2.78-.27s1.86.09,2.78.27c.92.18,1.81.45,2.67.81.86.36,1.68.8,2.46,1.31.78.52,1.5,1.11,2.16,1.77s1.25,1.38,1.77,2.16c.52.78.96,1.6,1.31,2.46.36.86.63,1.75.81,2.67.18.92.27,1.84.27,2.78Z" fill="#ffce4a"/>
    <path d="M14.29,18.38c.48,0,.89-.14,1.22-.42.33-.28.49-.69.49-1.23s-.17-.95-.51-1.22c-.34-.27-.75-.41-1.23-.41s-.91.14-1.25.41c-.34.27-.51.67-.51,1.19,0,.35.08.65.25.9.17.25.38.44.65.58.27.13.57.2.89.2ZM14.44,20.06c-1.35,0-2.39-.44-3.12-1.32-.74-.88-1.1-2.12-1.1-3.72,0-1.13.18-2.1.53-2.92.36-.82.86-1.45,1.52-1.9.65-.45,1.42-.67,2.3-.67,1,0,1.81.26,2.44.79.63.53,1.02,1.25,1.16,2.18h-2.18c-.05-.42-.2-.74-.46-.96s-.59-.33-.97-.33c-.69,0-1.21.3-1.55.9s-.51,1.52-.51,2.77v.92l-.44-.13c.1-.46.29-.85.55-1.18.27-.33.6-.59,1-.77.4-.18.86-.27,1.36-.27.66,0,1.25.14,1.75.41.5.27.89.65,1.17,1.14.28.49.42,1.06.42,1.71s-.16,1.26-.48,1.76c-.32.5-.77.89-1.34,1.17-.58.28-1.26.41-2.05.41Z"/>
  </g>
</svg>